<svg width="524" height="177" viewBox="0 0 524 177" fill="none" xmlns="http://www.w3.org/2000/svg">
<path d="M46.3846 46.7107C36.079 46.7107 29.3778 38.8419 29.3778 27.8256C29.3778 17.1646 35.7744 8.88972 46.5877 8.88972C55.0657 8.88972 60.1931 13.7633 61.1576 20.4645H56.6902C55.8272 15.9463 52.2227 12.8495 46.4861 12.8495C38.5158 12.8495 34.0483 19.2968 34.0483 27.8256C34.0483 36.7097 38.9727 42.7002 46.5369 42.7002C53.3904 42.7002 56.6394 38.0297 57.0963 32.6992H61.6145C61.5638 36.3036 59.8377 40.3649 57.2486 42.9032C54.7103 45.3908 51.0043 46.7107 46.3846 46.7107ZM85.7278 46.2538C83.0372 46.2538 81.6157 45.0354 81.2096 42.3448H81.1588C79.5851 44.3755 76.8944 46.5077 72.427 46.5077C67.4519 46.5077 63.5429 44.1724 63.5429 39.1973C63.5429 33.0038 68.4164 31.7346 74.9653 30.7193C78.6713 30.1609 81.2604 29.8055 81.2604 26.9626C81.2604 24.0181 79.1282 22.3428 75.3714 22.3428C71.1071 22.3428 68.9749 24.1704 68.8226 28.1302H64.8628C65.0151 23.0536 68.3657 19.2461 75.3207 19.2461C80.905 19.2461 85.0171 21.3275 85.0171 27.5718V40.0603C85.0171 42.1925 85.5247 43.3601 87.8092 42.8525H87.9615V45.8477C87.4539 46.0508 86.7939 46.2538 85.7278 46.2538ZM73.3408 43.3601C78.8236 43.3601 81.3111 39.3496 81.3111 36.3036V31.8362C79.9404 32.6992 77.5544 33.3592 75.3207 33.7653C71.2086 34.5268 67.9088 35.2375 67.9088 39.0958C67.9088 42.5986 70.6502 43.3601 73.3408 43.3601ZM87.8092 23.1043V19.7537H91.6167V11.4788H95.7288V19.7537H100.805V23.1043H95.7288V40.1619C95.7288 41.9894 96.6934 42.5986 98.3687 42.5986C99.1809 42.5986 100.095 42.3956 100.552 42.2433H100.704V45.7969C99.7393 46 98.6225 46.1523 97.4041 46.1523C94.0535 46.1523 91.6167 44.7816 91.6167 41.0757V23.1043H87.8092ZM124.647 46.2538C121.957 46.2538 120.535 45.0354 120.129 42.3448H120.078C118.505 44.3755 115.814 46.5077 111.347 46.5077C106.372 46.5077 102.462 44.1724 102.462 39.1973C102.462 33.0038 107.336 31.7346 113.885 30.7193C117.591 30.1609 120.18 29.8055 120.18 26.9626C120.18 24.0181 118.048 22.3428 114.291 22.3428C110.027 22.3428 107.895 24.1704 107.742 28.1302H103.782C103.935 23.0536 107.285 19.2461 114.24 19.2461C119.825 19.2461 123.937 21.3275 123.937 27.5718V40.0603C123.937 42.1925 124.444 43.3601 126.729 42.8525H126.881V45.8477C126.373 46.0508 125.714 46.2538 124.647 46.2538ZM112.26 43.3601C117.743 43.3601 120.231 39.3496 120.231 36.3036V31.8362C118.86 32.6992 116.474 33.3592 114.24 33.7653C110.128 34.5268 106.828 35.2375 106.828 39.0958C106.828 42.5986 109.57 43.3601 112.26 43.3601ZM129.052 46V9.70198H133.164V46H129.052ZM149.118 46.7107C141.3 46.7107 136.427 40.5172 136.427 32.9023C136.427 25.2873 141.3 19.0938 149.118 19.0938C156.987 19.0938 161.759 25.2873 161.759 32.9023C161.759 40.5172 156.987 46.7107 149.118 46.7107ZM149.118 43.2586C154.703 43.2586 157.546 38.6896 157.546 32.9023C157.546 27.1149 154.703 22.4951 149.118 22.4951C143.534 22.4951 140.64 27.1149 140.64 32.9023C140.64 38.6896 143.534 43.2586 149.118 43.2586ZM185.659 46H181.547V42.3956H181.446C179.567 44.9339 177.334 46.6092 173.526 46.6092C168.145 46.6092 164.693 43.3601 164.693 37.9281V19.7537H168.805V37.8266C168.805 41.228 170.988 43.2078 174.694 43.2078C178.856 43.2078 181.547 40.0603 181.547 35.8975V19.7537H185.659V46ZM201.424 46.7107C193.403 46.7107 188.732 40.5172 188.732 32.9023C188.732 25.2873 193.707 19.0938 201.17 19.0938C209.039 19.0938 213.252 25.1857 213.252 33.8668H192.946C193.25 39.1973 196.144 43.2586 201.424 43.2586C205.231 43.2586 207.77 41.431 208.683 37.8774H212.694C211.476 43.5124 207.363 46.7107 201.424 46.7107ZM201.17 22.3428C196.296 22.3428 193.657 25.998 193.047 30.7701H208.836C208.582 25.5411 205.891 22.3428 201.17 22.3428ZM226.411 46.7615C219.253 46.7615 214.786 41.3803 214.786 32.953C214.786 24.2212 219.812 19.1445 226.31 19.1445C230.016 19.1445 232.859 20.9721 234.534 23.4597H234.635V9.70198H238.747V46H234.635V42.8017H234.534C232.554 45.34 230.117 46.7615 226.411 46.7615ZM226.563 43.3094C232.402 43.3094 234.889 38.9435 234.889 33.0038C234.889 26.9118 231.945 22.6474 226.513 22.6474C221.538 22.6474 218.999 27.1149 218.999 33.0038C218.999 38.9435 221.538 43.3094 226.563 43.3094Z" fill="#1B1B1B"/>
<path d="M301.748 18.7064H323.13V21.9475H300.173L301.748 18.7064ZM307.375 28.4746H322.095V31.5806H307.375V28.4746ZM307.375 38.4228H322.68V41.6188H307.375V38.4228ZM305.71 19.7867H309.131V52.5574H305.71V19.7867ZM303.504 11.7291L306.745 12.5844C305.905 14.9552 304.914 17.2959 303.774 19.6067C302.664 21.8874 301.463 24.0331 300.173 26.0438C298.882 28.0544 297.547 29.84 296.166 31.4005C295.986 31.2205 295.731 30.9804 295.401 30.6803C295.101 30.3802 294.771 30.0801 294.411 29.78C294.081 29.4799 293.796 29.2548 293.556 29.1048C294.906 27.6943 296.196 26.0588 297.427 24.1982C298.657 22.3376 299.783 20.3419 300.803 18.2112C301.853 16.0805 302.754 13.9198 303.504 11.7291ZM292.655 11.369L295.896 12.3593C294.936 14.8802 293.796 17.401 292.475 19.9218C291.155 22.4126 289.729 24.7534 288.199 26.9441C286.668 29.1048 285.078 31.0404 283.427 32.751C283.307 32.4809 283.127 32.1358 282.887 31.7156C282.647 31.2655 282.392 30.8153 282.122 30.3652C281.882 29.915 281.657 29.5699 281.447 29.3298C282.947 27.8594 284.388 26.1638 285.768 24.2432C287.149 22.3226 288.424 20.2669 289.594 18.0762C290.795 15.8555 291.815 13.6198 292.655 11.369ZM287.884 22.9378L291.215 19.5617L291.26 19.6517V52.5124H287.884V22.9378ZM332.043 31.0404C332.733 30.8903 333.424 30.7253 334.114 30.5452C334.834 30.3352 335.554 30.1251 336.274 29.915C337.055 29.675 338.075 29.3448 339.335 28.9247C340.596 28.5046 341.961 28.0994 343.432 27.7093C344.902 27.3192 346.388 26.9741 347.888 26.674C349.419 26.3739 350.844 26.2238 352.165 26.2238C354.295 26.2238 356.186 26.629 357.836 27.4392C359.487 28.2495 360.777 29.4049 361.708 30.9054C362.668 32.3758 363.148 34.1464 363.148 36.2171C363.148 38.3778 362.653 40.2834 361.663 41.9339C360.672 43.5545 359.262 44.9349 357.431 46.0753C355.631 47.2156 353.47 48.1159 350.949 48.7761C348.458 49.4364 345.698 49.8565 342.667 50.0366L341.226 46.5704C343.657 46.4804 345.968 46.2403 348.158 45.8502C350.349 45.4301 352.3 44.8149 354.01 44.0046C355.721 43.1943 357.056 42.144 358.017 40.8536C359.007 39.5332 359.502 37.9576 359.502 36.127C359.502 34.8366 359.187 33.6963 358.557 32.7059C357.926 31.7156 357.041 30.9354 355.901 30.3652C354.79 29.765 353.455 29.4649 351.895 29.4649C350.784 29.4649 349.539 29.6149 348.158 29.915C346.778 30.1851 345.352 30.5452 343.882 30.9954C342.411 31.4455 341.001 31.9257 339.651 32.4358C338.3 32.916 337.1 33.3662 336.049 33.7863C334.999 34.1764 334.174 34.4915 333.574 34.7316L332.043 31.0404ZM389.797 13.5747C389.647 14.0849 389.497 14.7001 389.347 15.4203C389.197 16.1406 389.077 16.7258 388.987 17.1759C388.776 18.2563 388.521 19.5167 388.221 20.9571C387.951 22.3676 387.636 23.8531 387.276 25.4136C386.946 26.9741 386.571 28.5046 386.151 30.0051C385.761 31.5956 385.28 33.3361 384.71 35.2268C384.14 37.0874 383.54 38.963 382.91 40.8536C382.279 42.7442 381.634 44.5298 380.974 46.2103C380.314 47.8909 379.699 49.3613 379.128 50.6217L375.167 49.2713C375.857 48.1009 376.548 46.7055 377.238 45.085C377.958 43.4344 378.648 41.6788 379.308 39.8182C379.999 37.9576 380.629 36.112 381.199 34.2814C381.799 32.4208 382.309 30.7103 382.73 29.1498C383.03 28.0994 383.315 26.9891 383.585 25.8187C383.855 24.6483 384.11 23.508 384.35 22.3976C384.59 21.2572 384.785 20.2219 384.935 19.2916C385.115 18.3313 385.25 17.551 385.34 16.9508C385.43 16.3206 385.49 15.6604 385.52 14.9702C385.55 14.28 385.535 13.6948 385.475 13.2146L389.797 13.5747ZM379.804 21.0922C381.484 21.0922 383.285 21.0171 385.205 20.8671C387.156 20.687 389.137 20.432 391.147 20.1019C393.158 19.7717 395.094 19.3666 396.954 18.8865V22.4426C395.094 22.8627 393.143 23.2229 391.102 23.523C389.062 23.8231 387.051 24.0631 385.07 24.2432C383.12 24.3932 381.349 24.4683 379.759 24.4683C378.768 24.4683 377.853 24.4533 377.013 24.4233C376.172 24.3632 375.347 24.3182 374.537 24.2882L374.402 20.7771C375.482 20.8971 376.442 20.9871 377.283 21.0472C378.153 21.0772 378.993 21.0922 379.804 21.0922ZM394.028 27.3042C395.229 27.1841 396.534 27.0941 397.944 27.0341C399.385 26.9441 400.825 26.8991 402.266 26.8991C403.586 26.8991 404.907 26.9291 406.227 26.9891C407.578 27.0491 408.853 27.1541 410.053 27.3042L409.963 30.7253C408.823 30.5752 407.608 30.4552 406.317 30.3652C405.027 30.2451 403.721 30.1851 402.401 30.1851C400.99 30.1851 399.58 30.2301 398.17 30.3202C396.789 30.3802 395.409 30.4852 394.028 30.6353V27.3042ZM394.973 38.2427C394.793 38.963 394.643 39.6682 394.523 40.3584C394.403 41.0486 394.343 41.6939 394.343 42.294C394.343 42.8342 394.433 43.3594 394.613 43.8696C394.823 44.3497 395.199 44.7849 395.739 45.175C396.279 45.5651 397.044 45.8802 398.034 46.1203C399.055 46.3604 400.36 46.4804 401.951 46.4804C403.421 46.4804 404.907 46.4054 406.407 46.2553C407.908 46.1053 409.348 45.8802 410.729 45.5801L410.594 49.2263C409.393 49.4064 408.058 49.5564 406.587 49.6764C405.117 49.7965 403.556 49.8565 401.906 49.8565C398.365 49.8565 395.649 49.3163 393.758 48.236C391.867 47.1256 390.922 45.4601 390.922 43.2394C390.922 42.3691 390.982 41.4988 391.102 40.6285C391.252 39.7582 391.417 38.8579 391.597 37.9276L394.973 38.2427Z" fill="#1B1B1B"/>
<path d="M299.768 71.5015C299.618 72.1017 299.498 72.6568 299.408 73.167C299.348 73.6472 299.272 74.1423 299.182 74.6525C299.062 75.4928 298.912 76.5431 298.732 77.8035C298.582 79.0639 298.402 80.4444 298.192 81.9449C298.012 83.4453 297.817 84.9908 297.607 86.5814C297.427 88.1719 297.247 89.7174 297.067 91.2179C296.917 92.7183 296.797 94.0838 296.707 95.3142C296.617 96.5446 296.572 97.5649 296.572 98.3752C296.572 100.566 297.187 102.291 298.417 103.552C299.678 104.812 301.583 105.442 304.134 105.442C306.445 105.442 308.425 105.127 310.076 104.497C311.757 103.867 313.047 102.982 313.947 101.841C314.878 100.671 315.343 99.3205 315.343 97.79C315.343 96.2895 314.938 94.744 314.127 93.1535C313.317 91.533 312.087 90.0175 310.436 88.607L314.397 87.7967C315.928 89.5073 317.068 91.1878 317.818 92.8384C318.599 94.4589 318.989 96.2445 318.989 98.1951C318.989 100.416 318.359 102.336 317.098 103.957C315.868 105.578 314.142 106.808 311.922 107.648C309.701 108.518 307.105 108.954 304.134 108.954C302.093 108.954 300.233 108.623 298.552 107.963C296.902 107.333 295.581 106.283 294.591 104.812C293.601 103.342 293.105 101.376 293.105 98.9154C293.105 97.955 293.165 96.6946 293.286 95.1341C293.436 93.5736 293.616 91.8781 293.826 90.0475C294.066 88.1869 294.306 86.2963 294.546 84.3756C294.816 82.425 295.041 80.5944 295.221 78.8839C295.431 77.1733 295.581 75.6878 295.671 74.4274C295.761 73.6472 295.806 73.032 295.806 72.5818C295.806 72.1017 295.776 71.6515 295.716 71.2314L299.768 71.5015ZM285.318 77.4884C286.608 77.8785 288.019 78.2086 289.549 78.4787C291.08 78.7488 292.625 78.9589 294.186 79.1089C295.746 79.229 297.187 79.289 298.507 79.289C300.248 79.289 301.883 79.244 303.414 79.1539C304.974 79.0639 306.4 78.9139 307.69 78.7038L307.6 82.0799C306.16 82.1999 304.734 82.305 303.324 82.395C301.913 82.455 300.293 82.485 298.462 82.485C297.142 82.485 295.701 82.425 294.141 82.305C292.58 82.1549 291.02 81.9449 289.459 81.6748C287.899 81.4047 286.458 81.1046 285.138 80.7745L285.318 77.4884ZM284.238 88.652C285.678 89.1622 287.194 89.5673 288.784 89.8674C290.405 90.1375 291.995 90.3326 293.556 90.4526C295.116 90.5726 296.602 90.6327 298.012 90.6327C299.543 90.6327 301.088 90.6027 302.649 90.5426C304.239 90.4526 305.815 90.2876 307.375 90.0475L307.285 93.4686C305.815 93.6486 304.359 93.7687 302.919 93.8287C301.478 93.8887 299.993 93.9187 298.462 93.9187C296.031 93.9187 293.526 93.7687 290.945 93.4686C288.394 93.1685 286.098 92.7183 284.058 92.1181L284.238 88.652ZM350.229 76.138C349.929 78.4787 349.539 80.9245 349.059 83.4753C348.608 86.0262 348.023 88.502 347.303 90.9028C346.403 93.9938 345.397 96.5746 344.287 98.6453C343.207 100.716 342.036 102.276 340.776 103.327C339.516 104.377 338.195 104.902 336.815 104.902C335.494 104.902 334.219 104.422 332.988 103.462C331.758 102.502 330.753 101.121 329.972 99.3205C329.192 97.4899 328.802 95.3442 328.802 92.8834C328.802 90.4226 329.297 88.0968 330.288 85.9061C331.308 83.7154 332.703 81.7798 334.474 80.0993C336.274 78.3887 338.375 77.0383 340.776 76.0479C343.177 75.0576 345.743 74.5625 348.473 74.5625C351.114 74.5625 353.485 74.9976 355.586 75.8679C357.716 76.7382 359.532 77.9386 361.032 79.469C362.533 80.9695 363.688 82.7251 364.499 84.7358C365.309 86.7164 365.714 88.8471 365.714 91.1278C365.714 94.2788 365.039 97.0547 363.688 99.4555C362.368 101.856 360.447 103.807 357.926 105.307C355.436 106.808 352.405 107.798 348.834 108.278L346.718 104.947C347.438 104.857 348.128 104.767 348.789 104.677C349.449 104.587 350.049 104.482 350.589 104.362C352.03 104.032 353.425 103.522 354.775 102.832C356.156 102.111 357.386 101.211 358.467 100.131C359.547 99.0204 360.402 97.715 361.032 96.2145C361.693 94.684 362.023 92.9434 362.023 90.9928C362.023 89.1622 361.723 87.4666 361.123 85.9061C360.522 84.3156 359.637 82.9202 358.467 81.7198C357.296 80.5194 355.871 79.5741 354.19 78.8839C352.51 78.1936 350.589 77.8485 348.428 77.8485C345.968 77.8485 343.732 78.2987 341.721 79.199C339.741 80.0993 338.045 81.2846 336.635 82.7551C335.254 84.1956 334.189 85.7861 333.439 87.5267C332.688 89.2372 332.313 90.9178 332.313 92.5683C332.313 94.4589 332.553 96.0194 333.033 97.2498C333.544 98.4502 334.144 99.3355 334.834 99.9057C335.554 100.476 336.259 100.761 336.95 100.761C337.67 100.761 338.405 100.416 339.155 99.7256C339.906 99.0054 340.671 97.865 341.451 96.3045C342.231 94.714 342.997 92.6583 343.747 90.1375C344.407 87.9768 344.962 85.6811 345.412 83.2503C345.893 80.8195 346.238 78.4337 346.448 76.093L350.229 76.138ZM405.715 71.1413C405.655 71.5315 405.595 71.9666 405.535 72.4468C405.505 72.9269 405.475 73.4971 405.445 74.1573C405.445 74.6075 405.43 75.2827 405.4 76.183C405.4 77.0833 405.4 78.1036 405.4 79.244C405.4 80.3543 405.4 81.4797 405.4 82.6201C405.4 83.7604 405.4 84.8108 405.4 85.7711C405.4 87.2716 405.43 88.8471 405.49 90.4976C405.55 92.1482 405.625 93.7537 405.715 95.3142C405.805 96.8747 405.881 98.3002 405.941 99.5906C406.001 100.881 406.031 101.901 406.031 102.652C406.031 103.702 405.775 104.707 405.265 105.668C404.785 106.628 403.96 107.408 402.79 108.008C401.649 108.639 400.089 108.954 398.108 108.954C394.867 108.954 392.391 108.383 390.681 107.243C388.97 106.133 388.115 104.497 388.115 102.336C388.115 100.956 388.52 99.7556 389.33 98.7353C390.17 97.715 391.371 96.9197 392.931 96.3495C394.492 95.7493 396.352 95.4492 398.513 95.4492C400.884 95.4492 403.105 95.7343 405.175 96.3045C407.276 96.8447 409.197 97.5349 410.937 98.3752C412.678 99.2154 414.223 100.101 415.574 101.031C416.924 101.931 418.034 102.742 418.905 103.462L416.834 106.658C415.814 105.698 414.628 104.737 413.278 103.777C411.957 102.817 410.502 101.931 408.911 101.121C407.351 100.311 405.655 99.6656 403.825 99.1854C402.024 98.6753 400.104 98.4202 398.063 98.4202C395.902 98.4202 394.252 98.7803 393.111 99.5005C392.001 100.221 391.446 101.106 391.446 102.156C391.446 102.817 391.656 103.432 392.076 104.002C392.496 104.542 393.171 104.977 394.102 105.307C395.032 105.638 396.232 105.803 397.703 105.803C398.573 105.803 399.368 105.698 400.089 105.487C400.809 105.247 401.379 104.842 401.799 104.272C402.249 103.702 402.474 102.907 402.474 101.886C402.474 101.016 402.444 99.8907 402.384 98.5102C402.354 97.0998 402.309 95.6143 402.249 94.0538C402.189 92.4633 402.129 90.9328 402.069 89.4623C402.039 87.9918 402.024 86.7614 402.024 85.7711C402.024 84.7508 402.024 83.7154 402.024 82.6651C402.024 81.5847 402.024 80.5194 402.024 79.469C402.024 78.4187 402.024 77.4134 402.024 76.4531C402.054 75.4928 402.069 74.6225 402.069 73.8422C402.069 73.4821 402.054 73.017 402.024 72.4468C401.994 71.8766 401.949 71.4414 401.889 71.1413H405.715ZM388.475 76.0479C389.225 76.168 390.095 76.288 391.086 76.4081C392.076 76.5281 393.111 76.6481 394.192 76.7682C395.302 76.8582 396.352 76.9332 397.343 76.9932C398.363 77.0233 399.248 77.0383 399.999 77.0383C402.85 77.0383 405.76 76.9332 408.731 76.7232C411.732 76.5131 414.688 76.168 417.599 75.6878L417.554 78.9739C415.904 79.1539 414.103 79.334 412.153 79.5141C410.202 79.6941 408.191 79.8442 406.121 79.9642C404.08 80.0842 402.054 80.1443 400.044 80.1443C398.993 80.1443 397.748 80.0993 396.307 80.0092C394.867 79.9192 393.441 79.8142 392.031 79.6941C390.651 79.5741 389.48 79.469 388.52 79.379L388.475 76.0479ZM388.25 85.591C389.06 85.7111 389.96 85.8311 390.951 85.9511C391.941 86.0712 392.961 86.1612 394.012 86.2212C395.062 86.2813 396.067 86.3413 397.028 86.4013C397.988 86.4313 398.843 86.4463 399.593 86.4463C401.784 86.4463 403.9 86.4013 405.941 86.3113C408.011 86.1912 410.037 86.0412 412.018 85.8611C414.028 85.6511 416.009 85.396 417.959 85.0959L417.914 88.472C416.414 88.682 414.913 88.8621 413.413 89.0121C411.942 89.1322 410.457 89.2372 408.957 89.3272C407.486 89.4173 405.971 89.4923 404.41 89.5523C402.88 89.5823 401.259 89.5973 399.548 89.5973C398.528 89.5973 397.343 89.5673 395.992 89.5073C394.672 89.4473 393.321 89.3723 391.941 89.2822C390.591 89.1922 389.375 89.0872 388.295 88.9671L388.25 85.591ZM461.579 80.0092C461.068 80.3393 460.528 80.6544 459.958 80.9545C459.388 81.2546 458.773 81.5697 458.112 81.8998C457.362 82.32 456.432 82.8001 455.322 83.3403C454.211 83.8805 453.026 84.4807 451.765 85.1409C450.505 85.8011 449.245 86.4913 447.984 87.2116C446.724 87.9318 445.538 88.652 444.428 89.3723C442.327 90.7227 440.677 92.1482 439.476 93.6486C438.306 95.1491 437.721 96.7547 437.721 98.4652C437.721 100.326 438.606 101.811 440.377 102.922C442.177 104.002 444.848 104.542 448.389 104.542C450.04 104.542 451.75 104.482 453.521 104.362C455.292 104.212 456.987 104.017 458.608 103.777C460.258 103.537 461.654 103.282 462.794 103.012V107.018C461.684 107.228 460.363 107.408 458.833 107.558C457.332 107.738 455.712 107.873 453.971 107.963C452.231 108.083 450.43 108.143 448.569 108.143C446.439 108.143 444.488 107.963 442.717 107.603C440.947 107.273 439.401 106.748 438.081 106.028C436.791 105.307 435.785 104.362 435.065 103.192C434.345 101.991 433.985 100.551 433.985 98.8703C433.985 97.2198 434.33 95.7043 435.02 94.3239C435.71 92.9134 436.701 91.578 437.991 90.3176C439.281 89.0572 440.812 87.8418 442.582 86.6714C443.723 85.8911 444.938 85.1409 446.229 84.4207C447.549 83.6704 448.839 82.9502 450.1 82.26C451.36 81.5697 452.531 80.9395 453.611 80.3693C454.721 79.7992 455.652 79.319 456.402 78.9289C457.032 78.5387 457.602 78.1936 458.112 77.8935C458.623 77.5634 459.118 77.2033 459.598 76.8132L461.579 80.0092ZM438.801 71.8616C439.491 73.7822 440.227 75.6578 441.007 77.4884C441.817 79.319 442.627 81.0296 443.438 82.6201C444.278 84.2106 445.043 85.621 445.733 86.8514L442.627 88.697C441.877 87.4666 441.082 86.0112 440.242 84.3306C439.401 82.6501 438.561 80.8645 437.721 78.9739C436.881 77.0833 436.055 75.2077 435.245 73.3471L438.801 71.8616ZM500.066 72.0416C499.976 72.4018 499.886 72.8069 499.796 73.257C499.706 73.6772 499.616 74.0973 499.526 74.5174C499.466 74.9376 499.391 75.2827 499.301 75.5528C498.881 77.4434 498.37 79.394 497.77 81.4047C497.2 83.4153 496.555 85.411 495.835 87.3916C495.114 89.3723 494.334 91.2179 493.494 92.9284C492.684 94.639 491.828 96.1244 490.928 97.3849C489.788 98.9454 488.632 100.356 487.462 101.616C486.322 102.847 485.151 103.807 483.951 104.497C482.75 105.187 481.46 105.532 480.08 105.532C478.969 105.532 477.934 105.217 476.974 104.587C476.013 103.957 475.248 103.042 474.678 101.841C474.108 100.641 473.823 99.1704 473.823 97.4299C473.823 95.5393 474.168 93.6486 474.858 91.758C475.578 89.8674 476.553 88.1269 477.784 86.5363C479.044 84.9458 480.455 83.6254 482.015 82.5751C484.236 81.0446 486.472 79.9642 488.722 79.334C490.973 78.7038 493.239 78.3887 495.52 78.3887C498.461 78.3887 501.071 79.0039 503.352 80.2343C505.663 81.4647 507.463 83.1903 508.754 85.411C510.074 87.6017 510.734 90.1675 510.734 93.1085C510.734 96.0794 510.059 98.6753 508.709 100.896C507.388 103.087 505.513 104.857 503.082 106.208C500.681 107.528 497.875 108.413 494.664 108.864L492.549 105.668C494.919 105.457 497.005 105.007 498.806 104.317C500.636 103.627 502.167 102.727 503.397 101.616C504.628 100.506 505.558 99.2154 506.188 97.745C506.848 96.2745 507.178 94.684 507.178 92.9734C507.178 90.7527 506.683 88.7871 505.693 87.0765C504.703 85.3359 503.292 83.9705 501.461 82.9802C499.661 81.9899 497.56 81.4947 495.159 81.4947C492.969 81.4947 490.883 81.8548 488.902 82.5751C486.952 83.2653 485.091 84.2556 483.321 85.546C482.06 86.4463 480.965 87.5567 480.035 88.8771C479.104 90.1975 478.369 91.578 477.829 93.0184C477.319 94.4289 477.064 95.8093 477.064 97.1598C477.064 98.6603 477.364 99.8457 477.964 100.716C478.594 101.556 479.419 101.976 480.44 101.976C481.16 101.976 481.895 101.766 482.645 101.346C483.396 100.896 484.131 100.311 484.851 99.5906C485.571 98.8703 486.262 98.0751 486.922 97.2048C487.612 96.3045 488.227 95.4042 488.767 94.5039C489.518 93.3335 490.253 91.9831 490.973 90.4526C491.693 88.9221 492.369 87.2866 492.999 85.546C493.659 83.7754 494.229 82.0049 494.709 80.2343C495.219 78.4337 495.625 76.7232 495.925 75.1026C496.015 74.6525 496.075 74.0973 496.105 73.4371C496.165 72.7769 496.195 72.1917 496.195 71.6815L500.066 72.0416ZM481.655 74.0673C481.775 74.6975 481.91 75.3727 482.06 76.093C482.24 76.7832 482.405 77.4434 482.555 78.0736C482.855 79.1539 483.231 80.3693 483.681 81.7198C484.131 83.0702 484.596 84.4207 485.076 85.7711C485.586 87.1215 486.112 88.3969 486.652 89.5973C487.192 90.7677 487.702 91.743 488.182 92.5233C488.962 93.8437 489.848 95.1941 490.838 96.5746C491.828 97.955 492.864 99.1554 493.944 100.176L491.108 102.517C490.208 101.496 489.338 100.416 488.497 99.2755C487.657 98.1351 486.817 96.8297 485.976 95.3592C485.406 94.4889 484.836 93.4386 484.266 92.2082C483.696 90.9478 483.111 89.5973 482.51 88.1569C481.94 86.7164 481.385 85.2459 480.845 83.7454C480.305 82.2149 479.824 80.7445 479.404 79.334C479.194 78.6138 478.954 77.9085 478.684 77.2183C478.444 76.4981 478.189 75.8529 477.919 75.2827L481.655 74.0673Z" fill="#1B1B1B"/>
<path d="M10.1025 105.963L0.71073 69.6646H5.48278L11.2194 93.271C11.8286 95.7078 12.5901 99.4138 12.5901 99.4138H12.6916C12.6916 99.4138 13.5546 95.5555 14.2146 93.1695L20.7635 69.6646H25.6878L32.0336 93.1695C32.6936 95.6063 33.5059 99.4138 33.5059 99.4138H33.6074C33.6074 99.4138 34.4704 95.5048 35.0289 93.271L41.0701 69.6646H45.6898L35.5873 105.963H31.2214L24.571 80.3764C24.0125 78.2442 23.251 74.8428 23.251 74.8428H23.1495C23.1495 74.8428 22.388 78.2442 21.7788 80.3764L14.6715 105.963H10.1025ZM56.8715 106.673C49.0535 106.673 44.1799 100.48 44.1799 92.8649C44.1799 85.2499 49.0535 79.0564 56.8715 79.0564C64.7403 79.0564 69.5124 85.2499 69.5124 92.8649C69.5124 100.48 64.7403 106.673 56.8715 106.673ZM56.8715 103.221C62.4558 103.221 65.2988 98.6523 65.2988 92.8649C65.2988 87.0775 62.4558 82.4578 56.8715 82.4578C51.2872 82.4578 48.3935 87.0775 48.3935 92.8649C48.3935 98.6523 51.2872 103.221 56.8715 103.221ZM76.7101 79.7164V84.0823H76.8116C78.3854 81.544 81.1268 79.4118 84.6297 79.4118C85.3912 79.4118 85.7973 79.5133 86.305 79.7164V83.6762H86.1527C85.5435 83.4731 85.1373 83.4223 84.3251 83.4223C80.2638 83.4223 76.7101 86.4683 76.7101 91.3927V105.963H72.598V79.7164H76.7101ZM106.245 105.963L96.9544 91.7988L93.0962 95.454V105.963H88.9841V69.6646H93.0962V90.9358L104.62 79.7164H109.849L99.7973 89.1589L111.067 105.963H106.245ZM122.013 106.724C114.804 106.724 110.794 103.323 110.388 97.4339H114.601C115.16 102.003 118.206 103.272 122.115 103.272C126.43 103.272 128.207 101.394 128.207 98.9569C128.207 96.0124 126.176 95.2509 121.353 94.2356C116.175 93.1695 111.555 92.1034 111.555 86.3668C111.555 82.0009 114.906 79.158 120.998 79.158C127.496 79.158 130.694 82.2547 131.303 87.3821H127.09C126.684 83.93 124.805 82.407 120.896 82.407C117.14 82.407 115.617 84.0823 115.617 86.1637C115.617 89.0066 118.155 89.5651 122.673 90.4789C127.953 91.545 132.37 92.7126 132.37 98.7538C132.37 104.034 128.054 106.724 122.013 106.724Z" fill="#1B1B1B"/>
<path d="M83.2641 164.925V128.627H89.1023L100.88 158.782H100.982L112.658 128.627H118.598V164.925H114.232V135.074H114.13C114.13 135.074 113.166 137.917 112.506 139.643L102.555 164.925H99.0525L89.1023 139.643C88.3916 137.816 87.4778 135.074 87.4778 135.074H87.3762V164.925H83.2641ZM134.999 165.636C126.978 165.636 122.308 159.442 122.308 151.827C122.308 144.212 127.283 138.019 134.745 138.019C142.614 138.019 146.828 144.111 146.828 152.792H126.521C126.826 158.122 129.719 162.184 134.999 162.184C138.807 162.184 141.345 160.356 142.259 156.802H146.269C145.051 162.437 140.939 165.636 134.999 165.636ZM134.745 141.268C129.872 141.268 127.232 144.923 126.623 149.695H142.411C142.157 144.466 139.467 141.268 134.745 141.268ZM160.291 173.657C153.488 173.657 149.63 170.915 149.173 166.397H152.981C153.387 169.291 156.128 170.408 160.19 170.408C165.012 170.408 167.703 168.225 167.703 163.656V159.95H167.602C165.672 162.437 163.591 164.011 159.834 164.011C153.032 164.011 148.361 158.579 148.361 151.015C148.361 142.842 153.488 138.07 159.58 138.07C163.388 138.07 165.825 139.542 167.602 142.029H167.703V138.679H171.815V163.504C171.815 170.408 167.246 173.657 160.291 173.657ZM160.037 160.559C166.079 160.559 168.008 156.346 168.008 150.812C168.008 145.075 165.571 141.522 159.987 141.522C155.062 141.522 152.575 145.38 152.575 151.066C152.575 156.802 155.164 160.559 160.037 160.559ZM197.197 164.925H193.085V161.321H192.983C191.105 163.859 188.871 165.534 185.064 165.534C179.682 165.534 176.23 162.285 176.23 156.853V138.679H180.342V156.752C180.342 160.153 182.525 162.133 186.231 162.133C190.394 162.133 193.085 158.985 193.085 154.823V138.679H197.197V164.925ZM205.854 138.679V143.045H205.956C207.529 140.506 210.271 138.374 213.774 138.374C214.535 138.374 214.941 138.476 215.449 138.679V142.639H215.297C214.687 142.436 214.281 142.385 213.469 142.385C209.408 142.385 205.854 145.431 205.854 150.355V164.925H201.742V138.679H205.854ZM238.942 164.925H234.83V161.321H234.729C232.85 163.859 230.617 165.534 226.809 165.534C221.428 165.534 217.976 162.285 217.976 156.853V138.679H222.088V156.752C222.088 160.153 224.271 162.133 227.977 162.133C232.14 162.133 234.83 158.985 234.83 154.823V138.679H238.942V164.925Z" fill="#1B1B1B"/>
<path d="M283.228 164.925V128.627H289.066L300.843 158.782H300.945L312.621 128.627H318.561V164.925H314.195V135.074H314.094C314.094 135.074 313.129 137.917 312.469 139.643L302.519 164.925H299.016L289.066 139.643C288.355 137.816 287.441 135.074 287.441 135.074H287.34V164.925H283.228ZM344.557 164.925H340.445V161.321H340.344C338.465 163.859 336.232 165.534 332.424 165.534C327.043 165.534 323.591 162.285 323.591 156.853V138.679H327.703V156.752C327.703 160.153 329.886 162.133 333.592 162.133C337.755 162.133 340.445 158.985 340.445 154.823V138.679H344.557V164.925ZM353.215 138.679V143.045H353.316C354.89 140.506 357.631 138.374 361.134 138.374C361.896 138.374 362.302 138.476 362.81 138.679V142.639H362.657C362.048 142.436 361.642 142.385 360.83 142.385C356.768 142.385 353.215 145.431 353.215 150.355V164.925H349.103V138.679H353.215ZM385.108 165.179C382.418 165.179 380.996 163.96 380.59 161.27H380.539C378.966 163.301 376.275 165.433 371.807 165.433C366.832 165.433 362.923 163.097 362.923 158.122C362.923 151.929 367.797 150.66 374.346 149.644C378.052 149.086 380.641 148.731 380.641 145.888C380.641 142.943 378.509 141.268 374.752 141.268C370.488 141.268 368.355 143.095 368.203 147.055H364.243C364.396 141.979 367.746 138.171 374.701 138.171C380.285 138.171 384.398 140.253 384.398 146.497V158.985C384.398 161.118 384.905 162.285 387.19 161.778H387.342V164.773C386.834 164.976 386.174 165.179 385.108 165.179ZM372.721 162.285C378.204 162.285 380.692 158.275 380.692 155.229V150.761C379.321 151.624 376.935 152.284 374.701 152.69C370.589 153.452 367.289 154.163 367.289 158.021C367.289 161.524 370.031 162.285 372.721 162.285ZM389.361 164.925V138.679H393.473V142.436H393.574C395.199 139.897 397.991 138.07 401.291 138.07C404.489 138.07 407.027 139.694 408.144 142.74H408.246C409.921 139.745 413.069 138.07 416.267 138.07C420.937 138.07 424.237 141.065 424.237 146.497V164.925H420.125V146.7C420.125 143.451 417.942 141.522 415.302 141.522C411.901 141.522 408.855 144.466 408.855 148.578V164.925H404.743V146.7C404.743 143.451 402.915 141.522 400.225 141.522C397.026 141.522 393.473 144.466 393.473 148.578V164.925H389.361ZM439.871 165.636C432.053 165.636 427.179 159.442 427.179 151.827C427.179 144.212 432.053 138.019 439.871 138.019C447.739 138.019 452.511 144.212 452.511 151.827C452.511 159.442 447.739 165.636 439.871 165.636ZM439.871 162.184C445.455 162.184 448.298 157.615 448.298 151.827C448.298 146.04 445.455 141.42 439.871 141.42C434.286 141.42 431.393 146.04 431.393 151.827C431.393 157.615 434.286 162.184 439.871 162.184ZM453.426 142.029V138.679H457.234V130.404H461.346V138.679H466.422V142.029H461.346V159.087C461.346 160.914 462.31 161.524 463.985 161.524C464.798 161.524 465.712 161.321 466.168 161.168H466.321V164.722C465.356 164.925 464.239 165.077 463.021 165.077C459.67 165.077 457.234 163.707 457.234 160.001V142.029H453.426ZM480.625 165.636C472.807 165.636 467.933 159.442 467.933 151.827C467.933 144.212 472.807 138.019 480.625 138.019C488.493 138.019 493.265 144.212 493.265 151.827C493.265 159.442 488.493 165.636 480.625 165.636ZM480.625 162.184C486.209 162.184 489.052 157.615 489.052 151.827C489.052 146.04 486.209 141.42 480.625 141.42C475.04 141.42 472.147 146.04 472.147 151.827C472.147 157.615 475.04 162.184 480.625 162.184Z" fill="#1B1B1B"/>
<path d="M204.292 105.768C196.474 105.768 191.6 99.5746 191.6 91.9596C191.6 84.3447 196.474 78.1511 204.292 78.1511C212.16 78.1511 216.932 84.3447 216.932 91.9596C216.932 99.5746 212.16 105.768 204.292 105.768ZM204.292 102.316C209.876 102.316 212.719 97.747 212.719 91.9596C212.719 86.1722 209.876 81.5525 204.292 81.5525C198.707 81.5525 195.814 86.1722 195.814 91.9596C195.814 97.747 198.707 102.316 204.292 102.316ZM217.847 82.1617V78.8111H221.451V74.5975C221.451 70.0793 224.041 68.4548 228.406 68.4548C229.269 68.4548 229.929 68.5055 230.488 68.5563V72.0592C229.777 72.0084 229.574 72.0084 229.168 72.0084C226.528 72.0084 225.564 72.6684 225.564 74.8006V78.8111H230.437V82.1617H225.564V105.057H221.451V82.1617H217.847Z" fill="#1B1B1B"/>
</svg>
