<svg width="779" height="230" viewBox="0 0 779 230" fill="none" xmlns="http://www.w3.org/2000/svg">
<path d="M422.046 20.0451H449.281V24.1733H420.039L422.046 20.0451ZM429.213 32.4872H447.962V36.4434H429.213V32.4872ZM429.213 45.1586H448.708V49.2296H429.213V45.1586ZM427.092 21.4212H431.449V63.1624H427.092V21.4212ZM424.282 11.1578L428.411 12.2472C427.34 15.267 426.079 18.2485 424.626 21.1918C423.212 24.0969 421.683 26.8299 420.039 29.391C418.396 31.952 416.695 34.2264 414.936 36.2141C414.707 35.9847 414.382 35.6789 413.962 35.2967C413.579 34.9144 413.159 34.5322 412.7 34.1499C412.28 33.7677 411.917 33.481 411.611 33.2899C413.331 31.4933 414.975 29.4101 416.542 27.0402C418.109 24.6702 419.542 22.1283 420.842 19.4144C422.18 16.7004 423.327 13.9482 424.282 11.1578ZM410.464 10.6991L414.592 11.9606C413.369 15.1714 411.917 18.3823 410.235 21.5932C408.553 24.7658 406.737 27.7473 404.788 30.5377C402.838 33.2899 400.812 35.7554 398.71 37.9342C398.557 37.5902 398.328 37.1506 398.022 36.6154C397.716 36.0421 397.391 35.4687 397.047 34.8953C396.741 34.322 396.455 33.8824 396.187 33.5766C398.098 31.7036 399.933 29.5439 401.692 27.0975C403.45 24.6511 405.074 22.0327 406.565 19.2423C408.094 16.4137 409.394 13.566 410.464 10.6991ZM404.386 25.4347L408.629 21.1345L408.687 21.2491V63.1051H404.386V25.4347ZM466.368 35.7554C467.247 35.5643 468.126 35.354 469.005 35.1247C469.922 34.8571 470.84 34.5895 471.757 34.322C472.751 34.0162 474.051 33.5957 475.656 33.0605C477.262 32.5254 479.001 32.0094 480.874 31.5124C482.747 31.0155 484.639 30.5759 486.55 30.1937C488.5 29.8115 490.315 29.6203 491.997 29.6203C494.711 29.6203 497.119 30.1364 499.222 31.1684C501.324 32.2005 502.968 33.6721 504.153 35.5834C505.376 37.4564 505.987 39.7116 505.987 42.3491C505.987 45.1013 505.357 47.5286 504.095 49.6309C502.834 51.695 501.037 53.4534 498.706 54.9059C496.412 56.3584 493.66 57.5052 490.449 58.3461C487.276 59.1871 483.76 59.7222 479.899 59.9516L478.064 55.5366C481.16 55.4219 484.104 55.1161 486.894 54.6192C489.685 54.0841 492.169 53.3005 494.348 52.2684C496.527 51.2363 498.228 49.8985 499.451 48.2548C500.712 46.5729 501.343 44.5662 501.343 42.2345C501.343 40.5908 500.942 39.1383 500.139 37.8768C499.336 36.6154 498.209 35.6216 496.756 34.8953C495.342 34.1308 493.641 33.7486 491.653 33.7486C490.239 33.7486 488.653 33.9397 486.894 34.322C485.136 34.666 483.32 35.1247 481.447 35.698C479.574 36.2714 477.778 36.883 476.058 37.5328C474.337 38.1444 472.808 38.7178 471.471 39.2529C470.133 39.7499 469.082 40.1512 468.317 40.457L466.368 35.7554ZM545.665 13.5087C545.473 14.1585 545.282 14.9421 545.091 15.8595C544.9 16.7769 544.747 17.5222 544.632 18.0956C544.365 19.4717 544.04 21.0771 543.658 22.9119C543.314 24.7085 542.912 26.6006 542.454 28.5883C542.033 30.5759 541.555 32.5254 541.02 34.4366C540.523 36.4625 539.912 38.6796 539.185 41.0877C538.459 43.4576 537.695 45.8467 536.892 48.2548C536.089 50.663 535.267 52.9373 534.426 55.0779C533.586 57.2185 532.802 59.0915 532.076 60.6969L527.03 58.9768C527.909 57.4861 528.788 55.7086 529.668 53.6445C530.585 51.5421 531.464 49.306 532.305 46.9361C533.184 44.5662 533.987 42.2153 534.713 39.8836C535.478 37.5137 536.127 35.3349 536.663 33.3472C537.045 32.0094 537.408 30.5951 537.752 29.1043C538.096 27.6135 538.421 26.161 538.727 24.7467C539.033 23.2942 539.281 21.9754 539.472 20.7904C539.701 19.5673 539.873 18.5734 539.988 17.8089C540.103 17.0062 540.179 16.1653 540.218 15.2861C540.256 14.4069 540.237 13.6616 540.16 13.05L545.665 13.5087ZM532.936 23.0839C535.076 23.0839 537.37 22.9884 539.816 22.7972C542.301 22.5679 544.824 22.243 547.385 21.8225C549.946 21.402 552.411 20.886 554.781 20.2744V24.804C552.411 25.3392 549.927 25.7979 547.327 26.1801C544.728 26.5624 542.167 26.8682 539.644 27.0975C537.16 27.2886 534.904 27.3842 532.878 27.3842C531.617 27.3842 530.451 27.3651 529.381 27.3269C528.311 27.2504 527.259 27.1931 526.227 27.1548L526.055 22.6826C527.431 22.8355 528.655 22.9501 529.725 23.0266C530.833 23.0648 531.904 23.0839 532.936 23.0839ZM551.054 30.9964C552.583 30.8435 554.246 30.7288 556.043 30.6524C557.877 30.5377 559.712 30.4804 561.547 30.4804C563.229 30.4804 564.911 30.5186 566.592 30.5951C568.313 30.6715 569.937 30.8053 571.466 30.9964L571.351 35.354C569.899 35.1629 568.351 35.01 566.707 34.8953C565.064 34.7424 563.401 34.666 561.719 34.666C559.922 34.666 558.126 34.7233 556.329 34.838C554.571 34.9144 552.813 35.0482 551.054 35.2393V30.9964ZM552.258 44.9293C552.029 45.8467 551.838 46.745 551.685 47.6241C551.532 48.5033 551.456 49.3251 551.456 50.0896C551.456 50.7777 551.57 51.4466 551.8 52.0964C552.067 52.708 552.545 53.2623 553.233 53.7592C553.921 54.2561 554.896 54.6575 556.157 54.9632C557.457 55.269 559.12 55.4219 561.145 55.4219C563.018 55.4219 564.911 55.3264 566.822 55.1353C568.733 54.9441 570.568 54.6575 572.326 54.2752L572.154 58.9195C570.625 59.1488 568.924 59.34 567.051 59.4929C565.178 59.6458 563.191 59.7222 561.088 59.7222C556.578 59.7222 553.118 59.0342 550.71 57.6581C548.302 56.2438 547.098 54.1223 547.098 51.2937C547.098 50.1852 547.174 49.0767 547.327 47.9681C547.518 46.8596 547.729 45.7129 547.958 44.5279L552.258 44.9293Z" fill="#1B1B1B"/>
<path d="M419.745 88.566C419.554 89.3305 419.401 90.0376 419.286 90.6875C419.21 91.2991 419.114 91.9298 419 92.5796C418.847 93.6499 418.656 94.9877 418.426 96.5932C418.235 98.1986 418.006 99.9569 417.738 101.868C417.509 103.779 417.26 105.748 416.993 107.774C416.763 109.8 416.534 111.768 416.305 113.68C416.114 115.591 415.961 117.33 415.846 118.897C415.731 120.464 415.674 121.764 415.674 122.796C415.674 125.587 416.458 127.784 418.025 129.39C419.63 130.995 422.058 131.798 425.307 131.798C428.25 131.798 430.773 131.397 432.875 130.594C435.016 129.791 436.659 128.664 437.806 127.211C438.991 125.72 439.584 124 439.584 122.051C439.584 120.14 439.068 118.171 438.035 116.145C437.003 114.081 435.436 112.151 433.334 110.354L438.379 109.322C440.329 111.501 441.781 113.641 442.737 115.744C443.731 117.808 444.228 120.082 444.228 122.567C444.228 125.395 443.425 127.842 441.82 129.906C440.252 131.97 438.055 133.537 435.226 134.608C432.397 135.716 429.091 136.27 425.307 136.27C422.707 136.27 420.337 135.85 418.197 135.009C416.095 134.206 414.413 132.868 413.151 130.995C411.89 129.122 411.259 126.619 411.259 123.484C411.259 122.261 411.336 120.656 411.488 118.668C411.68 116.68 411.909 114.521 412.177 112.189C412.482 109.819 412.788 107.411 413.094 104.964C413.438 102.48 413.725 100.148 413.954 97.9692C414.222 95.7904 414.413 93.8983 414.527 92.2929C414.642 91.2991 414.699 90.5154 414.699 89.9421C414.699 89.3305 414.661 88.7571 414.585 88.222L419.745 88.566ZM401.34 96.1918C402.983 96.6887 404.78 97.1092 406.73 97.4532C408.679 97.7972 410.648 98.0648 412.635 98.2559C414.623 98.4088 416.458 98.4853 418.14 98.4853C420.357 98.4853 422.44 98.4279 424.389 98.3133C426.377 98.1986 428.193 98.0075 429.836 97.7399L429.722 102.04C427.887 102.193 426.071 102.327 424.275 102.442C422.478 102.518 420.414 102.556 418.082 102.556C416.4 102.556 414.566 102.48 412.578 102.327C410.59 102.136 408.603 101.868 406.615 101.524C404.627 101.18 402.792 100.798 401.11 100.377L401.34 96.1918ZM399.964 110.411C401.799 111.061 403.729 111.577 405.755 111.959C407.819 112.303 409.845 112.552 411.832 112.705C413.82 112.858 415.712 112.934 417.509 112.934C419.458 112.934 421.427 112.896 423.415 112.82C425.44 112.705 427.447 112.495 429.435 112.189L429.32 116.546C427.447 116.776 425.593 116.929 423.759 117.005C421.924 117.082 420.032 117.12 418.082 117.12C414.986 117.12 411.794 116.929 408.507 116.546C405.258 116.164 402.334 115.591 399.734 114.826L399.964 110.411ZM489.753 94.4717C489.371 97.4532 488.874 100.569 488.263 103.818C487.689 107.067 486.944 110.22 486.026 113.278C484.88 117.215 483.599 120.503 482.185 123.14C480.809 125.778 479.318 127.765 477.713 129.103C476.107 130.441 474.425 131.11 472.667 131.11C470.985 131.11 469.361 130.498 467.793 129.275C466.226 128.052 464.946 126.294 463.952 124C462.958 121.669 462.461 118.935 462.461 115.801C462.461 112.667 463.092 109.704 464.353 106.914C465.653 104.123 467.43 101.658 469.685 99.5173C471.979 97.3385 474.655 95.6184 477.713 94.357C480.771 93.0956 484.039 92.4649 487.517 92.4649C490.881 92.4649 493.901 93.0192 496.576 94.1277C499.29 95.2362 501.603 96.7652 503.514 98.7146C505.425 100.626 506.897 102.862 507.929 105.423C508.961 107.946 509.477 110.66 509.477 113.565C509.477 117.578 508.617 121.114 506.897 124.172C505.215 127.23 502.769 129.715 499.558 131.626C496.385 133.537 492.525 134.799 487.976 135.41L485.281 131.167C486.198 131.053 487.078 130.938 487.919 130.823C488.76 130.709 489.524 130.575 490.212 130.422C492.047 130.001 493.824 129.352 495.544 128.472C497.303 127.555 498.87 126.408 500.246 125.032C501.622 123.618 502.712 121.955 503.514 120.044C504.355 118.095 504.776 115.877 504.776 113.393C504.776 111.061 504.393 108.901 503.629 106.914C502.864 104.888 501.737 103.11 500.246 101.581C498.755 100.052 496.94 98.8484 494.799 97.9692C492.658 97.0901 490.212 96.6505 487.46 96.6505C484.325 96.6505 481.478 97.2239 478.917 98.3706C476.394 99.5173 474.234 101.027 472.438 102.9C470.679 104.735 469.322 106.761 468.367 108.978C467.411 111.157 466.933 113.297 466.933 115.4C466.933 117.808 467.239 119.796 467.851 121.363C468.5 122.892 469.265 124.019 470.144 124.746C471.062 125.472 471.96 125.835 472.839 125.835C473.756 125.835 474.693 125.395 475.648 124.516C476.604 123.599 477.579 122.146 478.573 120.159C479.566 118.133 480.541 115.514 481.497 112.303C482.338 109.551 483.045 106.627 483.618 103.531C484.23 100.435 484.669 97.3959 484.937 94.4144L489.753 94.4717ZM627.564 88.1073C627.488 88.6042 627.412 89.1585 627.335 89.7701C627.297 90.3817 627.259 91.1079 627.22 91.9489C627.22 92.5222 627.201 93.3823 627.163 94.529C627.163 95.6758 627.163 96.9754 627.163 98.4279C627.163 99.8423 627.163 101.276 627.163 102.728C627.163 104.181 627.163 105.519 627.163 106.742C627.163 108.653 627.201 110.66 627.278 112.762C627.354 114.865 627.45 116.91 627.564 118.897C627.679 120.885 627.775 122.701 627.851 124.344C627.928 125.988 627.966 127.288 627.966 128.243C627.966 129.581 627.641 130.862 626.991 132.085C626.379 133.308 625.328 134.302 623.838 135.066C622.385 135.869 620.397 136.27 617.874 136.27C613.746 136.27 610.593 135.544 608.414 134.092C606.235 132.677 605.146 130.594 605.146 127.842C605.146 126.083 605.662 124.554 606.694 123.255C607.764 121.955 609.293 120.942 611.281 120.216C613.268 119.451 615.638 119.069 618.391 119.069C621.41 119.069 624.239 119.432 626.876 120.159C629.552 120.847 631.998 121.726 634.216 122.796C636.433 123.866 638.401 124.994 640.121 126.179C641.841 127.326 643.256 128.358 644.364 129.275L641.727 133.346C640.427 132.123 638.917 130.9 637.197 129.677C635.515 128.453 633.661 127.326 631.635 126.294C629.648 125.262 627.488 124.44 625.156 123.828C622.863 123.178 620.416 122.853 617.817 122.853C615.065 122.853 612.963 123.312 611.51 124.23C610.096 125.147 609.389 126.275 609.389 127.612C609.389 128.453 609.656 129.237 610.191 129.963C610.726 130.651 611.587 131.206 612.772 131.626C613.956 132.046 615.485 132.257 617.358 132.257C618.467 132.257 619.48 132.123 620.397 131.855C621.315 131.55 622.041 131.034 622.576 130.307C623.149 129.581 623.436 128.568 623.436 127.268C623.436 126.16 623.398 124.726 623.321 122.968C623.283 121.172 623.226 119.279 623.149 117.292C623.073 115.266 622.997 113.316 622.92 111.443C622.882 109.57 622.863 108.003 622.863 106.742C622.863 105.442 622.863 104.123 622.863 102.786C622.863 101.409 622.863 100.052 622.863 98.7146C622.863 97.3768 622.863 96.0962 622.863 94.8731C622.901 93.6499 622.92 92.5414 622.92 91.5475C622.92 91.0888 622.901 90.4963 622.863 89.7701C622.825 89.0438 622.767 88.4895 622.691 88.1073H627.564ZM605.604 94.357C606.56 94.5099 607.669 94.6628 608.93 94.8157C610.191 94.9686 611.51 95.1215 612.886 95.2744C614.3 95.3891 615.638 95.4846 616.9 95.5611C618.199 95.5993 619.327 95.6184 620.283 95.6184C623.914 95.6184 627.622 95.4846 631.406 95.2171C635.228 94.9495 638.994 94.5099 642.701 93.8983L642.644 98.0839C640.542 98.3133 638.248 98.5426 635.764 98.772C633.279 99.0013 630.718 99.1924 628.08 99.3453C625.481 99.4982 622.901 99.5747 620.34 99.5747C619.002 99.5747 617.416 99.5173 615.581 99.4027C613.746 99.288 611.931 99.1542 610.134 99.0013C608.376 98.8484 606.885 98.7146 605.662 98.6L605.604 94.357ZM605.318 106.512C606.35 106.665 607.497 106.818 608.758 106.971C610.019 107.124 611.319 107.239 612.657 107.315C613.995 107.392 615.275 107.468 616.498 107.545C617.722 107.583 618.811 107.602 619.767 107.602C622.557 107.602 625.252 107.545 627.851 107.43C630.489 107.277 633.069 107.086 635.592 106.856C638.153 106.589 640.675 106.264 643.16 105.882L643.103 110.182C641.192 110.45 639.28 110.679 637.369 110.87C635.496 111.023 633.604 111.157 631.693 111.271C629.82 111.386 627.889 111.482 625.902 111.558C623.952 111.596 621.888 111.615 619.709 111.615C618.41 111.615 616.9 111.577 615.18 111.501C613.498 111.424 611.778 111.329 610.019 111.214C608.299 111.099 606.751 110.966 605.375 110.813L605.318 106.512ZM704.453 99.4027C703.803 99.8231 703.115 100.225 702.389 100.607C701.663 100.989 700.879 101.39 700.038 101.811C699.083 102.346 697.898 102.958 696.483 103.646C695.069 104.334 693.559 105.098 691.954 105.939C690.348 106.78 688.743 107.659 687.137 108.577C685.532 109.494 684.022 110.411 682.608 111.329C679.932 113.049 677.83 114.865 676.301 116.776C674.81 118.687 674.065 120.732 674.065 122.911C674.065 125.281 675.192 127.173 677.448 128.587C679.741 129.963 683.143 130.651 687.654 130.651C689.756 130.651 691.935 130.575 694.19 130.422C696.445 130.231 698.605 129.982 700.669 129.677C702.771 129.371 704.549 129.046 706.001 128.702V133.805C704.587 134.072 702.905 134.302 700.956 134.493C699.044 134.722 696.98 134.894 694.763 135.009C692.546 135.162 690.253 135.238 687.883 135.238C685.169 135.238 682.684 135.009 680.429 134.55C678.174 134.13 676.205 133.461 674.523 132.543C672.88 131.626 671.599 130.422 670.682 128.931C669.764 127.402 669.306 125.567 669.306 123.427C669.306 121.324 669.745 119.394 670.624 117.636C671.504 115.839 672.765 114.138 674.409 112.533C676.052 110.927 678.002 109.379 680.257 107.889C681.71 106.895 683.258 105.939 684.901 105.022C686.583 104.066 688.227 103.149 689.832 102.27C691.438 101.39 692.929 100.588 694.305 99.8614C695.719 99.1351 696.904 98.5235 697.859 98.0266C698.662 97.5297 699.388 97.0901 700.038 96.7078C700.688 96.2874 701.319 95.8287 701.93 95.3317L704.453 99.4027ZM675.441 89.0247C676.32 91.4711 677.256 93.8601 678.25 96.1918C679.282 98.5235 680.314 100.702 681.346 102.728C682.417 104.754 683.391 106.551 684.271 108.118L680.314 110.469C679.359 108.901 678.346 107.048 677.276 104.907C676.205 102.766 675.135 100.492 674.065 98.0839C672.994 95.6758 671.943 93.2867 670.911 90.9168L675.441 89.0247ZM759.21 89.254C759.095 89.7127 758.981 90.2288 758.866 90.8021C758.751 91.3373 758.637 91.8724 758.522 92.4076C758.446 92.9427 758.35 93.3823 758.235 93.7263C757.7 96.1345 757.05 98.6191 756.286 101.18C755.56 103.741 754.738 106.283 753.82 108.806C752.903 111.329 751.909 113.68 750.839 115.858C749.807 118.037 748.717 119.929 747.571 121.535C746.118 123.522 744.646 125.319 743.156 126.924C741.703 128.492 740.212 129.715 738.683 130.594C737.154 131.473 735.511 131.913 733.752 131.913C732.338 131.913 731.019 131.511 729.796 130.709C728.573 129.906 727.598 128.74 726.872 127.211C726.146 125.682 725.783 123.809 725.783 121.592C725.783 119.184 726.222 116.776 727.101 114.368C728.019 111.959 729.261 109.742 730.828 107.717C732.434 105.691 734.23 104.009 736.218 102.671C739.047 100.721 741.894 99.3453 744.761 98.5426C747.628 97.7399 750.514 97.3385 753.419 97.3385C757.165 97.3385 760.491 98.1221 763.396 99.6894C766.339 101.257 768.632 103.454 770.276 106.283C771.958 109.073 772.799 112.342 772.799 116.088C772.799 119.872 771.939 123.178 770.219 126.007C768.537 128.797 766.148 131.053 763.052 132.773C759.994 134.455 756.42 135.582 752.33 136.156L749.635 132.085C752.654 131.817 755.311 131.244 757.605 130.365C759.936 129.485 761.886 128.339 763.453 126.924C765.02 125.51 766.205 123.866 767.008 121.993C767.849 120.12 768.269 118.095 768.269 115.916C768.269 113.087 767.639 110.583 766.377 108.405C765.116 106.188 763.319 104.448 760.987 103.187C758.694 101.925 756.018 101.295 752.96 101.295C750.17 101.295 747.513 101.753 744.99 102.671C742.506 103.55 740.136 104.811 737.881 106.455C736.275 107.602 734.88 109.016 733.695 110.698C732.51 112.38 731.574 114.138 730.886 115.973C730.236 117.77 729.911 119.528 729.911 121.248C729.911 123.159 730.293 124.669 731.058 125.778C731.86 126.848 732.911 127.383 734.211 127.383C735.128 127.383 736.065 127.116 737.021 126.58C737.976 126.007 738.913 125.262 739.83 124.344C740.748 123.427 741.627 122.414 742.468 121.305C743.347 120.159 744.13 119.012 744.818 117.865C745.774 116.374 746.711 114.654 747.628 112.705C748.545 110.755 749.405 108.672 750.208 106.455C751.049 104.2 751.775 101.945 752.387 99.6894C753.037 97.3959 753.553 95.2171 753.935 93.1529C754.05 92.5796 754.126 91.8724 754.164 91.0315C754.241 90.1905 754.279 89.4452 754.279 88.7953L759.21 89.254ZM735.759 91.8342C735.912 92.6369 736.084 93.497 736.275 94.4144C736.505 95.2935 736.715 96.1345 736.906 96.9372C737.288 98.3133 737.766 99.8614 738.339 101.581C738.913 103.302 739.505 105.022 740.117 106.742C740.767 108.462 741.436 110.086 742.124 111.615C742.812 113.106 743.461 114.348 744.073 115.342C745.067 117.024 746.195 118.744 747.456 120.503C748.717 122.261 750.036 123.79 751.412 125.09L747.8 128.071C746.653 126.771 745.545 125.395 744.474 123.943C743.404 122.49 742.334 120.828 741.264 118.955C740.537 117.846 739.811 116.508 739.085 114.941C738.358 113.336 737.613 111.615 736.849 109.781C736.122 107.946 735.415 106.073 734.727 104.162C734.039 102.212 733.427 100.339 732.892 98.5426C732.625 97.6252 732.319 96.7269 731.975 95.8478C731.669 94.9304 731.344 94.1086 731 93.3823L735.759 91.8342Z" fill="#1B1B1B"/>
<path d="M12.868 135.377L0.905286 89.1426H6.98364L14.2906 119.211C15.0666 122.315 16.0365 127.035 16.0365 127.035H16.1658C16.1658 127.035 17.2651 122.121 18.1057 119.082L26.4473 89.1426H32.7196L40.8025 119.082C41.6432 122.186 42.6778 127.035 42.6778 127.035H42.8071C42.8071 127.035 43.9064 122.056 44.6177 119.211L52.3126 89.1426H58.197L45.329 135.377H39.7679L31.297 102.787C30.5857 100.071 29.6158 95.7382 29.6158 95.7382H29.4865C29.4865 95.7382 28.5165 100.071 27.7406 102.787L18.6877 135.377H12.868ZM72.4396 136.282C62.4814 136.282 56.2737 128.393 56.2737 118.694C56.2737 108.994 62.4814 101.105 72.4396 101.105C82.4624 101.105 88.5407 108.994 88.5407 118.694C88.5407 128.393 82.4624 136.282 72.4396 136.282ZM72.4396 131.885C79.5525 131.885 83.1737 126.065 83.1737 118.694C83.1737 111.322 79.5525 105.438 72.4396 105.438C65.3266 105.438 61.6408 111.322 61.6408 118.694C61.6408 126.065 65.3266 131.885 72.4396 131.885ZM97.7088 101.946V107.507H97.8381C99.8427 104.274 103.334 101.558 107.796 101.558C108.766 101.558 109.284 101.687 109.93 101.946V106.99H109.736C108.96 106.731 108.443 106.666 107.408 106.666C102.235 106.666 97.7088 110.546 97.7088 116.818V135.377H92.4711V101.946H97.7088ZM135.328 135.377L123.495 117.336L118.58 121.992V135.377H113.343V89.1426H118.58V116.236L133.259 101.946H139.919L127.116 113.973L141.471 135.377H135.328ZM155.413 136.347C146.231 136.347 141.123 132.014 140.605 124.513H145.972C146.684 130.333 150.563 131.95 155.543 131.95C161.039 131.95 163.302 129.557 163.302 126.453C163.302 122.703 160.716 121.733 154.573 120.44C147.977 119.082 142.093 117.724 142.093 110.417C142.093 104.856 146.36 101.235 154.12 101.235C162.397 101.235 166.471 105.179 167.247 111.71H161.88C161.362 107.313 158.97 105.373 153.991 105.373C149.206 105.373 147.266 107.507 147.266 110.158C147.266 113.779 150.499 114.491 156.254 115.655C162.979 117.012 168.605 118.5 168.605 126.195C168.605 132.92 163.108 136.347 155.413 136.347Z" fill="#1B1B1B"/>
<path d="M157.94 211.849V165.615H165.376L180.378 204.025H180.507L195.38 165.615H202.946V211.849H197.384V173.827H197.255C197.255 173.827 196.027 177.448 195.186 179.647L182.512 211.849H178.05L165.376 179.647C164.471 177.319 163.307 173.827 163.307 173.827H163.178V211.849H157.94ZM223.837 212.754C213.62 212.754 207.671 204.865 207.671 195.166C207.671 185.466 214.008 177.577 223.514 177.577C233.536 177.577 238.903 185.337 238.903 196.394H213.038C213.426 203.184 217.112 208.357 223.837 208.357C228.687 208.357 231.92 206.029 233.084 201.503H238.192C236.64 208.68 231.402 212.754 223.837 212.754ZM223.514 181.716C217.306 181.716 213.943 186.372 213.167 192.45H233.278C232.954 185.79 229.527 181.716 223.514 181.716ZM256.052 222.971C247.387 222.971 242.473 219.479 241.891 213.724H246.741C247.258 217.41 250.75 218.833 255.923 218.833C262.066 218.833 265.493 216.052 265.493 210.232V205.512H265.364C262.907 208.68 260.255 210.685 255.47 210.685C246.805 210.685 240.856 203.766 240.856 194.131C240.856 183.72 247.387 177.642 255.147 177.642C259.997 177.642 263.101 179.517 265.364 182.686H265.493V178.418H270.731V210.038C270.731 218.833 264.911 222.971 256.052 222.971ZM255.729 206.288C263.424 206.288 265.881 200.921 265.881 193.872C265.881 186.566 262.777 182.039 255.664 182.039C249.392 182.039 246.223 186.954 246.223 194.196C246.223 201.503 249.521 206.288 255.729 206.288ZM303.06 211.849H297.823V207.258H297.693C295.301 210.491 292.456 212.625 287.606 212.625C280.752 212.625 276.355 208.486 276.355 201.567V178.418H281.592V201.438C281.592 205.771 284.373 208.292 289.093 208.292C294.396 208.292 297.823 204.283 297.823 198.981V178.418H303.06V211.849ZM314.088 178.418V183.979H314.217C316.221 180.746 319.713 178.03 324.175 178.03C325.145 178.03 325.662 178.159 326.309 178.418V183.462H326.115C325.339 183.203 324.822 183.138 323.787 183.138C318.614 183.138 314.088 187.018 314.088 193.291V211.849H308.85V178.418H314.088ZM356.233 211.849H350.996V207.258H350.866C348.474 210.491 345.629 212.625 340.779 212.625C333.925 212.625 329.527 208.486 329.527 201.567V178.418H334.765V201.438C334.765 205.771 337.546 208.292 342.266 208.292C347.569 208.292 350.996 204.283 350.996 198.981V178.418H356.233V211.849Z" fill="#1B1B1B"/>
<path d="M398.332 214.396V168.162H405.769L420.771 206.572H420.9L435.772 168.162H443.338V214.396H437.777V176.374H437.648C437.648 176.374 436.419 179.995 435.579 182.194L422.905 214.396H418.443L405.769 182.194C404.863 179.866 403.699 176.374 403.699 176.374H403.57V214.396H398.332ZM476.451 214.396H471.213V209.805H471.084C468.691 213.038 465.846 215.172 460.996 215.172C454.142 215.172 449.745 211.034 449.745 204.115V180.965H454.983V203.986C454.983 208.318 457.763 210.84 462.483 210.84C467.786 210.84 471.213 206.831 471.213 201.528V180.965H476.451V214.396ZM487.478 180.965V186.526H487.607C489.612 183.293 493.104 180.577 497.565 180.577C498.535 180.577 499.053 180.707 499.699 180.965V186.009H499.505C498.729 185.751 498.212 185.686 497.177 185.686C492.004 185.686 487.478 189.566 487.478 195.838V214.396H482.24V180.965H487.478ZM528.102 214.72C524.675 214.72 522.864 213.168 522.347 209.741H522.282C520.278 212.327 516.851 215.043 511.16 215.043C504.823 215.043 499.844 212.068 499.844 205.731C499.844 197.843 506.052 196.226 514.393 194.933C519.114 194.221 522.412 193.769 522.412 190.148C522.412 186.397 519.696 184.263 514.911 184.263C509.479 184.263 506.763 186.591 506.569 191.635H501.525C501.719 185.169 505.987 180.319 514.846 180.319C521.959 180.319 527.197 182.97 527.197 190.924V206.831C527.197 209.547 527.843 211.034 530.753 210.387H530.947V214.202C530.301 214.461 529.46 214.72 528.102 214.72ZM512.324 211.034C519.308 211.034 522.476 205.925 522.476 202.046V196.355C520.73 197.455 517.691 198.295 514.846 198.813C509.608 199.782 505.405 200.688 505.405 205.602C505.405 210.064 508.897 211.034 512.324 211.034ZM533.519 214.396V180.965H538.756V185.751H538.886C540.955 182.517 544.511 180.189 548.715 180.189C552.788 180.189 556.022 182.259 557.444 186.138H557.573C559.707 182.323 563.716 180.189 567.79 180.189C573.739 180.189 577.942 184.005 577.942 190.924V214.396H572.705V191.182C572.705 187.044 569.924 184.587 566.562 184.587C562.229 184.587 558.349 188.337 558.349 193.575V214.396H553.112V191.182C553.112 187.044 550.784 184.587 547.357 184.587C543.283 184.587 538.756 188.337 538.756 193.575V214.396H533.519ZM597.855 215.302C587.897 215.302 581.689 207.413 581.689 197.713C581.689 188.014 587.897 180.125 597.855 180.125C607.878 180.125 613.956 188.014 613.956 197.713C613.956 207.413 607.878 215.302 597.855 215.302ZM597.855 210.905C604.968 210.905 608.589 205.085 608.589 197.713C608.589 190.342 604.968 184.457 597.855 184.457C590.742 184.457 587.056 190.342 587.056 197.713C587.056 205.085 590.742 210.905 597.855 210.905ZM615.121 185.233V180.965H619.971V170.425H625.209V180.965H631.675V185.233H625.209V206.96C625.209 209.288 626.437 210.064 628.571 210.064C629.606 210.064 630.77 209.805 631.352 209.611H631.546V214.138C630.317 214.396 628.895 214.59 627.343 214.59C623.075 214.59 619.971 212.844 619.971 208.124V185.233H615.121ZM649.765 215.302C639.807 215.302 633.599 207.413 633.599 197.713C633.599 188.014 639.807 180.125 649.765 180.125C659.788 180.125 665.866 188.014 665.866 197.713C665.866 207.413 659.788 215.302 649.765 215.302ZM649.765 210.905C656.878 210.905 660.499 205.085 660.499 197.713C660.499 190.342 656.878 184.457 649.765 184.457C642.652 184.457 638.966 190.342 638.966 197.713C638.966 205.085 642.652 210.905 649.765 210.905Z" fill="#1B1B1B"/>
<path d="M340.863 135.129C330.905 135.129 324.697 127.24 324.697 117.541C324.697 107.841 330.905 99.9522 340.863 99.9522C350.886 99.9522 356.964 107.841 356.964 117.541C356.964 127.24 350.886 135.129 340.863 135.129ZM340.863 130.732C347.976 130.732 351.597 124.912 351.597 117.541C351.597 110.169 347.976 104.285 340.863 104.285C333.75 104.285 330.064 110.169 330.064 117.541C330.064 124.912 333.75 130.732 340.863 130.732ZM358.129 105.061V100.793H362.72V95.4258C362.72 89.6707 366.018 87.6015 371.579 87.6015C372.678 87.6015 373.519 87.6662 374.23 87.7308V92.1926C373.325 92.1279 373.066 92.1279 372.549 92.1279C369.186 92.1279 367.958 92.9686 367.958 95.6844V100.793H374.165V105.061H367.958V134.224H362.72V105.061H358.129Z" fill="#1B1B1B"/>
<path d="M130.249 59.9053C117.122 59.9053 108.587 49.8825 108.587 35.8505C108.587 22.2712 116.734 11.7311 130.507 11.7311C141.306 11.7311 147.837 17.9388 149.066 26.4744H143.375C142.276 20.7193 137.685 16.7749 130.378 16.7749C120.226 16.7749 114.536 24.9871 114.536 35.8505C114.536 47.1666 120.808 54.7969 130.443 54.7969C139.172 54.7969 143.311 48.8479 143.893 42.0582H149.648C149.583 46.6493 147.385 51.8224 144.087 55.0555C140.854 58.224 136.133 59.9053 130.249 59.9053ZM180.362 59.3233C176.935 59.3233 175.124 57.7714 174.607 54.3442H174.542C172.538 56.9308 169.11 59.6466 163.42 59.6466C157.083 59.6466 152.104 56.6721 152.104 50.3351C152.104 42.4462 158.312 40.8296 166.653 39.5363C171.374 38.825 174.671 38.3724 174.671 34.7513C174.671 31.0008 171.956 28.8669 167.17 28.8669C161.739 28.8669 159.023 31.1948 158.829 36.2385H153.785C153.979 29.7722 158.247 24.9224 167.106 24.9224C174.219 24.9224 179.457 27.5736 179.457 35.5272V51.4344C179.457 54.1503 180.103 55.6375 183.013 54.9909H183.207V58.806C182.56 59.0647 181.72 59.3233 180.362 59.3233ZM164.584 55.6375C171.568 55.6375 174.736 50.5291 174.736 46.6493V40.9589C172.99 42.0582 169.951 42.8988 167.106 43.4161C161.868 44.3861 157.665 45.2914 157.665 50.2058C157.665 54.6676 161.157 55.6375 164.584 55.6375ZM183.013 29.8368V25.5691H187.863V15.029H193.1V25.5691H199.567V29.8368H193.1V51.5637C193.1 53.8916 194.329 54.6676 196.463 54.6676C197.498 54.6676 198.662 54.4089 199.243 54.2149H199.437V58.7413C198.209 59 196.786 59.194 195.234 59.194C190.967 59.194 187.863 57.4481 187.863 52.7277V29.8368H183.013ZM229.935 59.3233C226.508 59.3233 224.698 57.7714 224.18 54.3442H224.116C222.111 56.9308 218.684 59.6466 212.994 59.6466C206.657 59.6466 201.677 56.6721 201.677 50.3351C201.677 42.4462 207.885 40.8296 216.227 39.5363C220.947 38.825 224.245 38.3724 224.245 34.7513C224.245 31.0008 221.529 28.8669 216.744 28.8669C211.312 28.8669 208.596 31.1948 208.402 36.2385H203.359C203.553 29.7722 207.82 24.9224 216.679 24.9224C223.792 24.9224 229.03 27.5736 229.03 35.5272V51.4344C229.03 54.1503 229.677 55.6375 232.587 54.9909H232.78V58.806C232.134 59.0647 231.293 59.3233 229.935 59.3233ZM214.157 55.6375C221.141 55.6375 224.31 50.5291 224.31 46.6493V40.9589C222.564 42.0582 219.525 42.8988 216.679 43.4161C211.442 44.3861 207.238 45.2914 207.238 50.2058C207.238 54.6676 210.73 55.6375 214.157 55.6375ZM235.546 59V12.7657H240.784V59H235.546ZM261.105 59.9053C251.147 59.9053 244.939 52.0164 244.939 42.3169C244.939 32.6174 251.147 24.7284 261.105 24.7284C271.128 24.7284 277.206 32.6174 277.206 42.3169C277.206 52.0164 271.128 59.9053 261.105 59.9053ZM261.105 55.5082C268.218 55.5082 271.839 49.6885 271.839 42.3169C271.839 34.9452 268.218 29.0609 261.105 29.0609C253.992 29.0609 250.306 34.9452 250.306 42.3169C250.306 49.6885 253.992 55.5082 261.105 55.5082ZM307.648 59H302.411V54.4089H302.281C299.889 57.6421 297.044 59.776 292.194 59.776C285.34 59.776 280.943 55.6375 280.943 48.7185V25.5691H286.18V48.5892C286.18 52.9216 288.961 55.4435 293.681 55.4435C298.984 55.4435 302.411 51.4344 302.411 46.132V25.5691H307.648V59ZM326.759 70.1221C318.094 70.1221 313.179 66.6303 312.597 60.8752H317.447C317.964 64.561 321.456 65.9836 326.629 65.9836C332.772 65.9836 336.199 63.2031 336.199 57.3834V52.663H336.07C333.613 55.8315 330.962 57.8361 326.177 57.8361C317.512 57.8361 311.563 50.9171 311.563 41.2823C311.563 30.8715 318.094 24.7931 325.853 24.7931C330.703 24.7931 333.807 26.6683 336.07 29.8368H336.199V25.5691H341.437V57.1894C341.437 65.9836 335.617 70.1221 326.759 70.1221ZM326.435 53.439C334.13 53.439 336.587 48.0719 336.587 41.0236C336.587 33.7166 333.484 29.1902 326.371 29.1902C320.098 29.1902 316.93 34.1046 316.93 41.3469C316.93 48.6539 320.228 53.439 326.435 53.439ZM361.545 59.9053C351.329 59.9053 345.38 52.0164 345.38 42.3169C345.38 32.6174 351.717 24.7284 361.222 24.7284C371.245 24.7284 376.612 32.488 376.612 43.5455H350.747C351.135 50.3351 354.82 55.5082 361.545 55.5082C366.395 55.5082 369.628 53.1803 370.792 48.6539H375.901C374.349 55.8315 369.111 59.9053 361.545 59.9053ZM361.222 28.8669C355.014 28.8669 351.652 33.5227 350.876 39.601H370.986C370.663 32.9407 367.236 28.8669 361.222 28.8669Z" fill="#1B1B1B"/>
</svg>
