<svg width="572" height="177" viewBox="0 0 572 177" fill="none" xmlns="http://www.w3.org/2000/svg">
<path d="M56.3846 46.7107C46.079 46.7107 39.3778 38.8419 39.3778 27.8256C39.3778 17.1646 45.7744 8.88972 56.5877 8.88972C65.0657 8.88972 70.1931 13.7633 71.1576 20.4645H66.6902C65.8272 15.9463 62.2227 12.8495 56.4861 12.8495C48.5158 12.8495 44.0483 19.2968 44.0483 27.8256C44.0483 36.7097 48.9727 42.7002 56.5369 42.7002C63.3904 42.7002 66.6394 38.0297 67.0963 32.6992H71.6145C71.5638 36.3036 69.8377 40.3649 67.2486 42.9032C64.7103 45.3908 61.0043 46.7107 56.3846 46.7107ZM95.7278 46.2538C93.0372 46.2538 91.6157 45.0354 91.2096 42.3448H91.1588C89.5851 44.3755 86.8944 46.5077 82.427 46.5077C77.4519 46.5077 73.5429 44.1724 73.5429 39.1973C73.5429 33.0038 78.4164 31.7346 84.9653 30.7193C88.6713 30.1609 91.2604 29.8055 91.2604 26.9626C91.2604 24.0181 89.1282 22.3428 85.3714 22.3428C81.1071 22.3428 78.9749 24.1704 78.8226 28.1302H74.8628C75.0151 23.0536 78.3657 19.2461 85.3207 19.2461C90.905 19.2461 95.0171 21.3275 95.0171 27.5718V40.0603C95.0171 42.1925 95.5247 43.3601 97.8092 42.8525H97.9615V45.8477C97.4539 46.0508 96.7939 46.2538 95.7278 46.2538ZM83.3408 43.3601C88.8236 43.3601 91.3111 39.3496 91.3111 36.3036V31.8362C89.9404 32.6992 87.5544 33.3592 85.3207 33.7653C81.2086 34.5268 77.9088 35.2375 77.9088 39.0958C77.9088 42.5986 80.6502 43.3601 83.3408 43.3601ZM97.8092 23.1043V19.7537H101.617V11.4788H105.729V19.7537H110.805V23.1043H105.729V40.1619C105.729 41.9894 106.693 42.5986 108.369 42.5986C109.181 42.5986 110.095 42.3956 110.552 42.2433H110.704V45.7969C109.739 46 108.622 46.1523 107.404 46.1523C104.054 46.1523 101.617 44.7816 101.617 41.0757V23.1043H97.8092ZM134.647 46.2538C131.957 46.2538 130.535 45.0354 130.129 42.3448H130.078C128.505 44.3755 125.814 46.5077 121.347 46.5077C116.372 46.5077 112.462 44.1724 112.462 39.1973C112.462 33.0038 117.336 31.7346 123.885 30.7193C127.591 30.1609 130.18 29.8055 130.18 26.9626C130.18 24.0181 128.048 22.3428 124.291 22.3428C120.027 22.3428 117.895 24.1704 117.742 28.1302H113.782C113.935 23.0536 117.285 19.2461 124.24 19.2461C129.825 19.2461 133.937 21.3275 133.937 27.5718V40.0603C133.937 42.1925 134.444 43.3601 136.729 42.8525H136.881V45.8477C136.373 46.0508 135.714 46.2538 134.647 46.2538ZM122.26 43.3601C127.743 43.3601 130.231 39.3496 130.231 36.3036V31.8362C128.86 32.6992 126.474 33.3592 124.24 33.7653C120.128 34.5268 116.828 35.2375 116.828 39.0958C116.828 42.5986 119.57 43.3601 122.26 43.3601ZM139.052 46V9.70198H143.164V46H139.052ZM159.118 46.7107C151.3 46.7107 146.427 40.5172 146.427 32.9023C146.427 25.2873 151.3 19.0938 159.118 19.0938C166.987 19.0938 171.759 25.2873 171.759 32.9023C171.759 40.5172 166.987 46.7107 159.118 46.7107ZM159.118 43.2586C164.703 43.2586 167.546 38.6896 167.546 32.9023C167.546 27.1149 164.703 22.4951 159.118 22.4951C153.534 22.4951 150.64 27.1149 150.64 32.9023C150.64 38.6896 153.534 43.2586 159.118 43.2586ZM195.659 46H191.547V42.3956H191.446C189.567 44.9339 187.334 46.6092 183.526 46.6092C178.145 46.6092 174.693 43.3601 174.693 37.9281V19.7537H178.805V37.8266C178.805 41.228 180.988 43.2078 184.694 43.2078C188.856 43.2078 191.547 40.0603 191.547 35.8975V19.7537H195.659V46ZM211.424 46.7107C203.403 46.7107 198.732 40.5172 198.732 32.9023C198.732 25.2873 203.707 19.0938 211.17 19.0938C219.039 19.0938 223.252 25.1857 223.252 33.8668H202.946C203.25 39.1973 206.144 43.2586 211.424 43.2586C215.231 43.2586 217.77 41.431 218.683 37.8774H222.694C221.476 43.5124 217.363 46.7107 211.424 46.7107ZM211.17 22.3428C206.296 22.3428 203.657 25.998 203.047 30.7701H218.836C218.582 25.5411 215.891 22.3428 211.17 22.3428ZM236.411 46.7615C229.253 46.7615 224.786 41.3803 224.786 32.953C224.786 24.2212 229.812 19.1445 236.31 19.1445C240.016 19.1445 242.859 20.9721 244.534 23.4597H244.635V9.70198H248.747V46H244.635V42.8017H244.534C242.554 45.34 240.117 46.7615 236.411 46.7615ZM236.563 43.3094C242.402 43.3094 244.889 38.9435 244.889 33.0038C244.889 26.9118 241.945 22.6474 236.513 22.6474C231.538 22.6474 228.999 27.1149 228.999 33.0038C228.999 38.9435 231.538 43.3094 236.563 43.3094Z" fill="#1B1B1B"/>
<path d="M311.748 18.7064H333.13V21.9475H310.173L311.748 18.7064ZM317.375 28.4746H332.095V31.5806H317.375V28.4746ZM317.375 38.4228H332.68V41.6188H317.375V38.4228ZM315.71 19.7867H319.131V52.5574H315.71V19.7867ZM313.504 11.7291L316.745 12.5844C315.905 14.9552 314.914 17.2959 313.774 19.6067C312.664 21.8874 311.463 24.0331 310.173 26.0438C308.882 28.0544 307.547 29.84 306.166 31.4005C305.986 31.2205 305.731 30.9804 305.401 30.6803C305.101 30.3802 304.771 30.0801 304.411 29.78C304.081 29.4799 303.796 29.2548 303.556 29.1048C304.906 27.6943 306.196 26.0588 307.427 24.1982C308.657 22.3376 309.783 20.3419 310.803 18.2112C311.853 16.0805 312.754 13.9198 313.504 11.7291ZM302.655 11.369L305.896 12.3593C304.936 14.8802 303.796 17.401 302.475 19.9218C301.155 22.4126 299.729 24.7534 298.199 26.9441C296.668 29.1048 295.078 31.0404 293.427 32.751C293.307 32.4809 293.127 32.1358 292.887 31.7156C292.647 31.2655 292.392 30.8153 292.122 30.3652C291.882 29.915 291.657 29.5699 291.447 29.3298C292.947 27.8594 294.388 26.1638 295.768 24.2432C297.149 22.3226 298.424 20.2669 299.594 18.0762C300.795 15.8555 301.815 13.6198 302.655 11.369ZM297.884 22.9378L301.215 19.5617L301.26 19.6517V52.5124H297.884V22.9378ZM342.043 31.0404C342.733 30.8903 343.424 30.7253 344.114 30.5452C344.834 30.3352 345.554 30.1251 346.274 29.915C347.055 29.675 348.075 29.3448 349.335 28.9247C350.596 28.5046 351.961 28.0994 353.432 27.7093C354.902 27.3192 356.388 26.9741 357.888 26.674C359.419 26.3739 360.844 26.2238 362.165 26.2238C364.295 26.2238 366.186 26.629 367.836 27.4392C369.487 28.2495 370.777 29.4049 371.708 30.9054C372.668 32.3758 373.148 34.1464 373.148 36.2171C373.148 38.3778 372.653 40.2834 371.663 41.9339C370.672 43.5545 369.262 44.9349 367.431 46.0753C365.631 47.2156 363.47 48.1159 360.949 48.7761C358.458 49.4364 355.698 49.8565 352.667 50.0366L351.226 46.5704C353.657 46.4804 355.968 46.2403 358.158 45.8502C360.349 45.4301 362.3 44.8149 364.01 44.0046C365.721 43.1943 367.056 42.144 368.017 40.8536C369.007 39.5332 369.502 37.9576 369.502 36.127C369.502 34.8366 369.187 33.6963 368.557 32.7059C367.926 31.7156 367.041 30.9354 365.901 30.3652C364.79 29.765 363.455 29.4649 361.895 29.4649C360.784 29.4649 359.539 29.6149 358.158 29.915C356.778 30.1851 355.352 30.5452 353.882 30.9954C352.411 31.4455 351.001 31.9257 349.651 32.4358C348.3 32.916 347.1 33.3662 346.049 33.7863C344.999 34.1764 344.174 34.4915 343.574 34.7316L342.043 31.0404ZM399.797 13.5747C399.647 14.0849 399.497 14.7001 399.347 15.4203C399.197 16.1406 399.077 16.7258 398.987 17.1759C398.776 18.2563 398.521 19.5167 398.221 20.9571C397.951 22.3676 397.636 23.8531 397.276 25.4136C396.946 26.9741 396.571 28.5046 396.151 30.0051C395.761 31.5956 395.28 33.3361 394.71 35.2268C394.14 37.0874 393.54 38.963 392.91 40.8536C392.279 42.7442 391.634 44.5298 390.974 46.2103C390.314 47.8909 389.699 49.3613 389.128 50.6217L385.167 49.2713C385.857 48.1009 386.548 46.7055 387.238 45.085C387.958 43.4344 388.648 41.6788 389.308 39.8182C389.999 37.9576 390.629 36.112 391.199 34.2814C391.799 32.4208 392.309 30.7103 392.73 29.1498C393.03 28.0994 393.315 26.9891 393.585 25.8187C393.855 24.6483 394.11 23.508 394.35 22.3976C394.59 21.2572 394.785 20.2219 394.935 19.2916C395.115 18.3313 395.25 17.551 395.34 16.9508C395.43 16.3206 395.49 15.6604 395.52 14.9702C395.55 14.28 395.535 13.6948 395.475 13.2146L399.797 13.5747ZM389.804 21.0922C391.484 21.0922 393.285 21.0171 395.205 20.8671C397.156 20.687 399.137 20.432 401.147 20.1019C403.158 19.7717 405.094 19.3666 406.954 18.8865V22.4426C405.094 22.8627 403.143 23.2229 401.102 23.523C399.062 23.8231 397.051 24.0631 395.07 24.2432C393.12 24.3932 391.349 24.4683 389.759 24.4683C388.768 24.4683 387.853 24.4533 387.013 24.4233C386.172 24.3632 385.347 24.3182 384.537 24.2882L384.402 20.7771C385.482 20.8971 386.442 20.9871 387.283 21.0472C388.153 21.0772 388.993 21.0922 389.804 21.0922ZM404.028 27.3042C405.229 27.1841 406.534 27.0941 407.944 27.0341C409.385 26.9441 410.825 26.8991 412.266 26.8991C413.586 26.8991 414.907 26.9291 416.227 26.9891C417.578 27.0491 418.853 27.1541 420.053 27.3042L419.963 30.7253C418.823 30.5752 417.608 30.4552 416.317 30.3652C415.027 30.2451 413.721 30.1851 412.401 30.1851C410.99 30.1851 409.58 30.2301 408.17 30.3202C406.789 30.3802 405.409 30.4852 404.028 30.6353V27.3042ZM404.973 38.2427C404.793 38.963 404.643 39.6682 404.523 40.3584C404.403 41.0486 404.343 41.6939 404.343 42.294C404.343 42.8342 404.433 43.3594 404.613 43.8696C404.823 44.3497 405.199 44.7849 405.739 45.175C406.279 45.5651 407.044 45.8802 408.034 46.1203C409.055 46.3604 410.36 46.4804 411.951 46.4804C413.421 46.4804 414.907 46.4054 416.407 46.2553C417.908 46.1053 419.348 45.8802 420.729 45.5801L420.594 49.2263C419.393 49.4064 418.058 49.5564 416.587 49.6764C415.117 49.7965 413.556 49.8565 411.906 49.8565C408.365 49.8565 405.649 49.3163 403.758 48.236C401.867 47.1256 400.922 45.4601 400.922 43.2394C400.922 42.3691 400.982 41.4988 401.102 40.6285C401.252 39.7582 401.417 38.8579 401.597 37.9276L404.973 38.2427Z" fill="#1B1B1B"/>
<path d="M309.941 71.6185C309.791 72.2187 309.671 72.7739 309.581 73.2841C309.521 73.7642 309.446 74.2594 309.356 74.7696C309.236 75.6098 309.086 76.6602 308.906 77.9206C308.756 79.181 308.576 80.5614 308.366 82.0619C308.186 83.5624 307.991 85.1079 307.781 86.6984C307.601 88.2889 307.421 89.8344 307.241 91.3349C307.091 92.8354 306.971 94.2009 306.88 95.4313C306.79 96.6616 306.745 97.682 306.745 98.4922C306.745 100.683 307.361 102.409 308.591 103.669C309.851 104.929 311.757 105.56 314.308 105.56C316.619 105.56 318.599 105.244 320.25 104.614C321.93 103.984 323.221 103.099 324.121 101.958C325.051 100.788 325.517 99.4375 325.517 97.9071C325.517 96.4066 325.111 94.8611 324.301 93.2705C323.491 91.65 322.26 90.1345 320.61 88.7241L324.571 87.9138C326.102 89.6244 327.242 91.3049 327.992 92.9554C328.773 94.576 329.163 96.3616 329.163 98.3122C329.163 100.533 328.532 102.454 327.272 104.074C326.042 105.695 324.316 106.925 322.095 107.765C319.875 108.636 317.279 109.071 314.308 109.071C312.267 109.071 310.407 108.741 308.726 108.08C307.076 107.45 305.755 106.4 304.765 104.929C303.774 103.459 303.279 101.493 303.279 99.0324C303.279 98.0721 303.339 96.8117 303.459 95.2512C303.609 93.6907 303.789 91.9951 304 90.1645C304.24 88.3039 304.48 86.4133 304.72 84.4927C304.99 82.5421 305.215 80.7115 305.395 79.0009C305.605 77.2904 305.755 75.8049 305.845 74.5445C305.935 73.7642 305.98 73.149 305.98 72.6989C305.98 72.2187 305.95 71.7686 305.89 71.3484L309.941 71.6185ZM295.492 77.6055C296.782 77.9956 298.193 78.3257 299.723 78.5958C301.254 78.8659 302.799 79.0759 304.36 79.226C305.92 79.346 307.361 79.4061 308.681 79.4061C310.422 79.4061 312.057 79.361 313.588 79.271C315.148 79.181 316.574 79.0309 317.864 78.8209L317.774 82.197C316.334 82.317 314.908 82.422 313.498 82.5121C312.087 82.5721 310.467 82.6021 308.636 82.6021C307.316 82.6021 305.875 82.5421 304.315 82.422C302.754 82.272 301.194 82.0619 299.633 81.7918C298.073 81.5217 296.632 81.2216 295.312 80.8915L295.492 77.6055ZM294.411 88.7691C295.852 89.2793 297.367 89.6844 298.958 89.9845C300.578 90.2546 302.169 90.4496 303.729 90.5697C305.29 90.6897 306.775 90.7497 308.186 90.7497C309.716 90.7497 311.262 90.7197 312.822 90.6597C314.413 90.5697 315.988 90.4046 317.549 90.1645L317.459 93.5857C315.988 93.7657 314.533 93.8857 313.092 93.9458C311.652 94.0058 310.167 94.0358 308.636 94.0358C306.205 94.0358 303.699 93.8857 301.119 93.5857C298.568 93.2856 296.272 92.8354 294.231 92.2352L294.411 88.7691ZM360.403 76.255C360.103 78.5958 359.713 81.0416 359.232 83.5924C358.782 86.1432 358.197 88.619 357.477 91.0198C356.577 94.1108 355.571 96.6917 354.461 98.7623C353.381 100.833 352.21 102.394 350.95 103.444C349.689 104.494 348.369 105.019 346.988 105.019C345.668 105.019 344.393 104.539 343.162 103.579C341.932 102.619 340.927 101.238 340.146 99.4375C339.366 97.607 338.976 95.4613 338.976 93.0005C338.976 90.5397 339.471 88.2139 340.461 86.0232C341.482 83.8325 342.877 81.8969 344.648 80.2163C346.448 78.5058 348.549 77.1553 350.95 76.165C353.351 75.1747 355.916 74.6795 358.647 74.6795C361.288 74.6795 363.659 75.1147 365.76 75.9849C367.89 76.8552 369.706 78.0556 371.206 79.5861C372.707 81.0866 373.862 82.8422 374.672 84.8528C375.483 86.8335 375.888 88.9642 375.888 91.2449C375.888 94.3959 375.213 97.1718 373.862 99.5726C372.542 101.973 370.621 103.924 368.1 105.424C365.61 106.925 362.579 107.915 359.007 108.395L356.892 105.064C357.612 104.974 358.302 104.884 358.962 104.794C359.623 104.704 360.223 104.599 360.763 104.479C362.203 104.149 363.599 103.639 364.949 102.949C366.33 102.228 367.56 101.328 368.64 100.248C369.721 99.1375 370.576 97.832 371.206 96.3315C371.867 94.801 372.197 93.0605 372.197 91.1098C372.197 89.2793 371.897 87.5837 371.296 86.0232C370.696 84.4327 369.811 83.0372 368.64 81.8368C367.47 80.6365 366.045 79.6911 364.364 79.0009C362.684 78.3107 360.763 77.9656 358.602 77.9656C356.141 77.9656 353.906 78.4157 351.895 79.316C349.914 80.2163 348.219 81.4017 346.808 82.8722C345.428 84.3126 344.363 85.9032 343.612 87.6437C342.862 89.3543 342.487 91.0348 342.487 92.6854C342.487 94.576 342.727 96.1365 343.207 97.3669C343.717 98.5673 344.318 99.4526 345.008 100.023C345.728 100.593 346.433 100.878 347.124 100.878C347.844 100.878 348.579 100.533 349.329 99.8427C350.079 99.1224 350.845 97.9821 351.625 96.4216C352.405 94.8311 353.17 92.7754 353.921 90.2546C354.581 88.0939 355.136 85.7981 355.586 83.3673C356.066 80.9366 356.412 78.5508 356.622 76.21L360.403 76.255ZM436.023 71.2584C435.963 71.6485 435.903 72.0837 435.843 72.5638C435.813 73.044 435.783 73.6142 435.753 74.2744C435.753 74.7245 435.738 75.3998 435.708 76.3C435.708 77.2003 435.708 78.2207 435.708 79.361C435.708 80.4714 435.708 81.5968 435.708 82.7371C435.708 83.8775 435.708 84.9278 435.708 85.8882C435.708 87.3886 435.738 88.9642 435.798 90.6147C435.858 92.2652 435.933 93.8707 436.023 95.4313C436.113 96.9918 436.188 98.4172 436.248 99.7076C436.308 100.998 436.338 102.018 436.338 102.769C436.338 103.819 436.083 104.824 435.573 105.785C435.092 106.745 434.267 107.525 433.097 108.125C431.956 108.756 430.396 109.071 428.415 109.071C425.174 109.071 422.698 108.5 420.988 107.36C419.277 106.25 418.422 104.614 418.422 102.454C418.422 101.073 418.827 99.8727 419.637 98.8524C420.478 97.832 421.678 97.0368 423.239 96.4666C424.799 95.8664 426.66 95.5663 428.82 95.5663C431.191 95.5663 433.412 95.8514 435.483 96.4216C437.583 96.9617 439.504 97.652 441.244 98.4922C442.985 99.3325 444.531 100.218 445.881 101.148C447.231 102.048 448.342 102.859 449.212 103.579L447.141 106.775C446.121 105.815 444.936 104.854 443.585 103.894C442.265 102.934 440.809 102.048 439.219 101.238C437.658 100.428 435.963 99.7827 434.132 99.3025C432.332 98.7923 430.411 98.5373 428.37 98.5373C426.21 98.5373 424.559 98.8974 423.419 99.6176C422.308 100.338 421.753 101.223 421.753 102.273C421.753 102.934 421.963 103.549 422.383 104.119C422.803 104.659 423.479 105.094 424.409 105.424C425.339 105.755 426.54 105.92 428.01 105.92C428.88 105.92 429.676 105.815 430.396 105.605C431.116 105.364 431.686 104.959 432.106 104.389C432.557 103.819 432.782 103.024 432.782 102.003C432.782 101.133 432.752 100.008 432.692 98.6273C432.662 97.2168 432.617 95.7313 432.557 94.1708C432.497 92.5803 432.437 91.0498 432.377 89.5794C432.347 88.1089 432.332 86.8785 432.332 85.8882C432.332 84.8678 432.332 83.8325 432.332 82.7821C432.332 81.7018 432.332 80.6365 432.332 79.5861C432.332 78.5358 432.332 77.5304 432.332 76.5701C432.362 75.6098 432.377 74.7395 432.377 73.9593C432.377 73.5992 432.362 73.134 432.332 72.5638C432.302 71.9937 432.257 71.5585 432.197 71.2584H436.023ZM418.782 76.165C419.532 76.285 420.403 76.4051 421.393 76.5251C422.383 76.6452 423.419 76.7652 424.499 76.8852C425.609 76.9753 426.66 77.0503 427.65 77.1103C428.67 77.1403 429.556 77.1553 430.306 77.1553C433.157 77.1553 436.068 77.0503 439.039 76.8402C442.04 76.6302 444.996 76.285 447.907 75.8049L447.862 79.091C446.211 79.271 444.41 79.4511 442.46 79.6311C440.509 79.8112 438.499 79.9612 436.428 80.0813C434.387 80.2013 432.362 80.2613 430.351 80.2613C429.301 80.2613 428.055 80.2163 426.615 80.1263C425.174 80.0363 423.749 79.9312 422.338 79.8112C420.958 79.6911 419.787 79.5861 418.827 79.4961L418.782 76.165ZM418.557 85.7081C419.367 85.8281 420.268 85.9482 421.258 86.0682C422.248 86.1883 423.269 86.2783 424.319 86.3383C425.369 86.3983 426.375 86.4583 427.335 86.5184C428.295 86.5484 429.151 86.5634 429.901 86.5634C432.091 86.5634 434.207 86.5184 436.248 86.4283C438.319 86.3083 440.344 86.1582 442.325 85.9782C444.335 85.7681 446.316 85.513 448.267 85.2129L448.222 88.589C446.721 88.7991 445.221 88.9792 443.72 89.1292C442.25 89.2492 440.764 89.3543 439.264 89.4443C437.793 89.5343 436.278 89.6094 434.717 89.6694C433.187 89.6994 431.566 89.7144 429.856 89.7144C428.835 89.7144 427.65 89.6844 426.3 89.6244C424.979 89.5643 423.629 89.4893 422.248 89.3993C420.898 89.3093 419.682 89.2042 418.602 89.0842L418.557 85.7081ZM491.886 80.1263C491.376 80.4564 490.836 80.7715 490.265 81.0716C489.695 81.3717 489.08 81.6868 488.42 82.0169C487.669 82.437 486.739 82.9172 485.629 83.4574C484.518 83.9975 483.333 84.5977 482.073 85.258C480.812 85.9182 479.552 86.6084 478.291 87.3286C477.031 88.0489 475.846 88.7691 474.735 89.4893C472.635 90.8398 470.984 92.2652 469.784 93.7657C468.613 95.2662 468.028 96.8717 468.028 98.5823C468.028 100.443 468.913 101.928 470.684 103.039C472.485 104.119 475.155 104.659 478.697 104.659C480.347 104.659 482.058 104.599 483.828 104.479C485.599 104.329 487.294 104.134 488.915 103.894C490.565 103.654 491.961 103.399 493.101 103.129V107.135C491.991 107.345 490.67 107.525 489.14 107.675C487.639 107.855 486.019 107.99 484.278 108.08C482.538 108.2 480.737 108.26 478.877 108.26C476.746 108.26 474.795 108.08 473.025 107.72C471.254 107.39 469.709 106.865 468.388 106.145C467.098 105.424 466.093 104.479 465.372 103.309C464.652 102.108 464.292 100.668 464.292 98.9874C464.292 97.3369 464.637 95.8214 465.327 94.4409C466.017 93.0305 467.008 91.695 468.298 90.4346C469.589 89.1742 471.119 87.9588 472.89 86.7884C474.03 86.0082 475.245 85.258 476.536 84.5377C477.856 83.7875 479.147 83.0672 480.407 82.377C481.668 81.6868 482.838 81.0566 483.918 80.4864C485.029 79.9162 485.959 79.4361 486.709 79.0459C487.339 78.6558 487.91 78.3107 488.42 78.0106C488.93 77.6805 489.425 77.3204 489.905 76.9303L491.886 80.1263ZM469.108 71.9786C469.799 73.8993 470.534 75.7749 471.314 77.6055C472.124 79.4361 472.935 81.1466 473.745 82.7371C474.585 84.3276 475.351 85.7381 476.041 86.9685L472.935 88.8141C472.184 87.5837 471.389 86.1282 470.549 84.4477C469.709 82.7671 468.868 80.9816 468.028 79.091C467.188 77.2003 466.363 75.3247 465.552 73.4641L469.108 71.9786ZM530.373 72.1587C530.283 72.5188 530.193 72.924 530.103 73.3741C530.013 73.7942 529.923 74.2144 529.833 74.6345C529.773 75.0546 529.698 75.3998 529.608 75.6698C529.188 77.5605 528.678 79.5111 528.078 81.5217C527.507 83.5324 526.862 85.528 526.142 87.5087C525.422 89.4893 524.641 91.3349 523.801 93.0455C522.991 94.756 522.136 96.2415 521.235 97.5019C520.095 99.0624 518.94 100.473 517.769 101.733C516.629 102.964 515.459 103.924 514.258 104.614C513.058 105.304 511.767 105.65 510.387 105.65C509.277 105.65 508.241 105.334 507.281 104.704C506.321 104.074 505.555 103.159 504.985 101.958C504.415 100.758 504.13 99.2875 504.13 97.5469C504.13 95.6563 504.475 93.7657 505.165 91.8751C505.885 89.9845 506.861 88.2439 508.091 86.6534C509.352 85.0629 510.762 83.7425 512.323 82.6921C514.543 81.1616 516.779 80.0813 519.03 79.4511C521.28 78.8209 523.546 78.5058 525.827 78.5058C528.768 78.5058 531.379 79.121 533.659 80.3514C535.97 81.5818 537.771 83.3073 539.061 85.528C540.382 87.7187 541.042 90.2846 541.042 93.2255C541.042 96.1965 540.367 98.7923 539.016 101.013C537.696 103.204 535.82 104.974 533.389 106.325C530.989 107.645 528.183 108.53 524.972 108.981L522.856 105.785C525.227 105.575 527.312 105.124 529.113 104.434C530.944 103.744 532.474 102.844 533.704 101.733C534.935 100.623 535.865 99.3325 536.495 97.862C537.156 96.3916 537.486 94.801 537.486 93.0905C537.486 90.8698 536.99 88.9041 536 87.1936C535.01 85.453 533.599 84.0876 531.769 83.0973C529.968 82.1069 527.868 81.6118 525.467 81.6118C523.276 81.6118 521.19 81.9719 519.21 82.6921C517.259 83.3823 515.398 84.3727 513.628 85.6631C512.368 86.5634 511.272 87.6737 510.342 88.9942C509.412 90.3146 508.676 91.695 508.136 93.1355C507.626 94.546 507.371 95.9264 507.371 97.2768C507.371 98.7773 507.671 99.9627 508.271 100.833C508.901 101.673 509.727 102.093 510.747 102.093C511.467 102.093 512.202 101.883 512.953 101.463C513.703 101.013 514.438 100.428 515.158 99.7076C515.879 98.9874 516.569 98.1921 517.229 97.3219C517.919 96.4216 518.535 95.5213 519.075 94.621C519.825 93.4506 520.56 92.1002 521.28 90.5697C522.001 89.0392 522.676 87.4036 523.306 85.6631C523.966 83.8925 524.536 82.1219 525.017 80.3514C525.527 78.5508 525.932 76.8402 526.232 75.2197C526.322 74.7696 526.382 74.2144 526.412 73.5542C526.472 72.8939 526.502 72.3088 526.502 71.7986L530.373 72.1587ZM511.962 74.1844C512.082 74.8146 512.217 75.4898 512.368 76.21C512.548 76.9002 512.713 77.5605 512.863 78.1907C513.163 79.271 513.538 80.4864 513.988 81.8368C514.438 83.1873 514.903 84.5377 515.383 85.8882C515.894 87.2386 516.419 88.514 516.959 89.7144C517.499 90.8848 518.009 91.8601 518.49 92.6403C519.27 93.9608 520.155 95.3112 521.145 96.6917C522.136 98.0721 523.171 99.2725 524.251 100.293L521.415 102.634C520.515 101.613 519.645 100.533 518.805 99.3925C517.964 98.2522 517.124 96.9467 516.284 95.4763C515.714 94.606 515.143 93.5556 514.573 92.3252C514.003 91.0648 513.418 89.7144 512.818 88.2739C512.247 86.8335 511.692 85.363 511.152 83.8625C510.612 82.332 510.132 80.8615 509.712 79.4511C509.502 78.7308 509.262 78.0256 508.991 77.3354C508.751 76.6151 508.496 75.9699 508.226 75.3998L511.962 74.1844Z" fill="#1B1B1B"/>
<path d="M10.1025 105.963L0.71073 69.6646H5.48278L11.2194 93.271C11.8286 95.7078 12.5901 99.4138 12.5901 99.4138H12.6916C12.6916 99.4138 13.5546 95.5555 14.2146 93.1695L20.7635 69.6646H25.6878L32.0336 93.1695C32.6936 95.6063 33.5059 99.4138 33.5059 99.4138H33.6074C33.6074 99.4138 34.4704 95.5048 35.0289 93.271L41.0701 69.6646H45.6898L35.5873 105.963H31.2214L24.571 80.3764C24.0125 78.2442 23.251 74.8428 23.251 74.8428H23.1495C23.1495 74.8428 22.388 78.2442 21.7788 80.3764L14.6715 105.963H10.1025ZM56.8715 106.673C49.0535 106.673 44.1799 100.48 44.1799 92.8649C44.1799 85.2499 49.0535 79.0564 56.8715 79.0564C64.7403 79.0564 69.5124 85.2499 69.5124 92.8649C69.5124 100.48 64.7403 106.673 56.8715 106.673ZM56.8715 103.221C62.4558 103.221 65.2988 98.6523 65.2988 92.8649C65.2988 87.0775 62.4558 82.4578 56.8715 82.4578C51.2872 82.4578 48.3935 87.0775 48.3935 92.8649C48.3935 98.6523 51.2872 103.221 56.8715 103.221ZM76.7101 79.7164V84.0823H76.8116C78.3854 81.544 81.1268 79.4118 84.6297 79.4118C85.3912 79.4118 85.7973 79.5133 86.305 79.7164V83.6762H86.1527C85.5435 83.4731 85.1373 83.4223 84.3251 83.4223C80.2638 83.4223 76.7101 86.4683 76.7101 91.3927V105.963H72.598V79.7164H76.7101ZM106.245 105.963L96.9544 91.7988L93.0962 95.454V105.963H88.9841V69.6646H93.0962V90.9358L104.62 79.7164H109.849L99.7973 89.1589L111.067 105.963H106.245ZM122.013 106.724C114.804 106.724 110.794 103.323 110.388 97.4339H114.601C115.16 102.003 118.206 103.272 122.115 103.272C126.43 103.272 128.207 101.394 128.207 98.9569C128.207 96.0124 126.176 95.2509 121.353 94.2356C116.175 93.1695 111.555 92.1034 111.555 86.3668C111.555 82.0009 114.906 79.158 120.998 79.158C127.496 79.158 130.694 82.2547 131.303 87.3821H127.09C126.684 83.93 124.805 82.407 120.896 82.407C117.14 82.407 115.617 84.0823 115.617 86.1637C115.617 89.0066 118.155 89.5651 122.673 90.4789C127.953 91.545 132.37 92.7126 132.37 98.7538C132.37 104.034 128.054 106.724 122.013 106.724Z" fill="#1B1B1B"/>
<path d="M294.401 165V128.702H300.239L312.017 158.857H312.119L323.795 128.702H329.735V165H325.369V135.149H325.267C325.267 135.149 324.303 137.992 323.643 139.718L313.693 165H310.19L300.239 139.718C299.529 137.891 298.615 135.149 298.615 135.149H298.513V165H294.401ZM346.136 165.711C338.115 165.711 333.445 159.517 333.445 151.902C333.445 144.287 338.42 138.094 345.883 138.094C353.751 138.094 357.965 144.186 357.965 152.867H337.658C337.963 158.197 340.857 162.259 346.136 162.259C349.944 162.259 352.482 160.431 353.396 156.877H357.407C356.188 162.512 352.076 165.711 346.136 165.711ZM345.883 141.343C341.009 141.343 338.369 144.998 337.76 149.77H353.548C353.294 144.541 350.604 141.343 345.883 141.343ZM371.428 173.732C364.626 173.732 360.767 170.99 360.31 166.472H364.118C364.524 169.366 367.266 170.483 371.327 170.483C376.15 170.483 378.84 168.3 378.84 163.731V160.025H378.739C376.81 162.512 374.728 164.086 370.971 164.086C364.169 164.086 359.498 158.654 359.498 151.09C359.498 142.917 364.626 138.145 370.718 138.145C374.525 138.145 376.962 139.617 378.739 142.104H378.84V138.754H382.952V163.579C382.952 170.483 378.383 173.732 371.428 173.732ZM371.175 160.634C377.216 160.634 379.145 156.42 379.145 150.887C379.145 145.15 376.708 141.597 371.124 141.597C366.199 141.597 363.712 145.455 363.712 151.141C363.712 156.877 366.301 160.634 371.175 160.634ZM408.334 165H404.222V161.396H404.12C402.242 163.934 400.008 165.609 396.201 165.609C390.82 165.609 387.367 162.36 387.367 156.928V138.754H391.48V156.827C391.48 160.228 393.662 162.208 397.368 162.208C401.531 162.208 404.222 159.06 404.222 154.897V138.754H408.334V165ZM416.991 138.754V143.12H417.093C418.667 140.581 421.408 138.449 424.911 138.449C425.672 138.449 426.078 138.551 426.586 138.754V142.714H426.434C425.825 142.51 425.418 142.46 424.606 142.46C420.545 142.46 416.991 145.506 416.991 150.43V165H412.879V138.754H416.991ZM450.079 165H445.967V161.396H445.866C443.988 163.934 441.754 165.609 437.946 165.609C432.565 165.609 429.113 162.36 429.113 156.928V138.754H433.225V156.827C433.225 160.228 435.408 162.208 439.114 162.208C443.277 162.208 445.967 159.06 445.967 154.897V138.754H450.079V165Z" fill="#1B1B1B"/>
<path d="M40.4014 164.925V128.627H46.2395L58.0173 158.782H58.1188L69.7951 128.627H75.7348V164.925H71.3689V135.074H71.2674C71.2674 135.074 70.3028 137.917 69.6428 139.643L59.6926 164.925H56.1897L46.2395 139.643C45.5288 137.816 44.615 135.074 44.615 135.074H44.5134V164.925H40.4014ZM101.731 164.925H97.6191V161.321H97.5176C95.6392 163.859 93.4055 165.534 89.598 165.534C84.2168 165.534 80.7647 162.285 80.7647 156.853V138.679H84.8767V156.752C84.8767 160.153 87.0597 162.133 90.7657 162.133C94.9285 162.133 97.6191 158.985 97.6191 154.823V138.679H101.731V164.925ZM110.388 138.679V143.045H110.49C112.064 140.506 114.805 138.374 118.308 138.374C119.07 138.374 119.476 138.476 119.983 138.679V142.639H119.831C119.222 142.436 118.816 142.385 118.003 142.385C113.942 142.385 110.388 145.431 110.388 150.355V164.925H106.276V138.679H110.388ZM142.282 165.179C139.591 165.179 138.17 163.96 137.764 161.27H137.713C136.139 163.301 133.449 165.433 128.981 165.433C124.006 165.433 120.097 163.097 120.097 158.122C120.097 151.929 124.971 150.66 131.52 149.644C135.226 149.086 137.815 148.731 137.815 145.888C137.815 142.943 135.682 141.268 131.926 141.268C127.661 141.268 125.529 143.095 125.377 147.055H121.417C121.569 141.979 124.92 138.171 131.875 138.171C137.459 138.171 141.571 140.253 141.571 146.497V158.985C141.571 161.118 142.079 162.285 144.364 161.778H144.516V164.773C144.008 164.976 143.348 165.179 142.282 165.179ZM129.895 162.285C135.378 162.285 137.865 158.275 137.865 155.229V150.761C136.495 151.624 134.109 152.284 131.875 152.69C127.763 153.452 124.463 154.163 124.463 158.021C124.463 161.524 127.204 162.285 129.895 162.285ZM146.535 164.925V138.679H150.647V142.436H150.748C152.373 139.897 155.165 138.07 158.465 138.07C161.663 138.07 164.201 139.694 165.318 142.74H165.42C167.095 139.745 170.243 138.07 173.441 138.07C178.111 138.07 181.411 141.065 181.411 146.497V164.925H177.299V146.7C177.299 143.451 175.116 141.522 172.476 141.522C169.075 141.522 166.029 144.466 166.029 148.578V164.925H161.917V146.7C161.917 143.451 160.089 141.522 157.399 141.522C154.2 141.522 150.647 144.466 150.647 148.578V164.925H146.535ZM197.044 165.636C189.226 165.636 184.353 159.442 184.353 151.827C184.353 144.212 189.226 138.019 197.044 138.019C204.913 138.019 209.685 144.212 209.685 151.827C209.685 159.442 204.913 165.636 197.044 165.636ZM197.044 162.184C202.629 162.184 205.472 157.615 205.472 151.827C205.472 146.04 202.629 141.42 197.044 141.42C191.46 141.42 188.566 146.04 188.566 151.827C188.566 157.615 191.46 162.184 197.044 162.184ZM210.6 142.029V138.679H214.407V130.404H218.519V138.679H223.596V142.029H218.519V159.087C218.519 160.914 219.484 161.524 221.159 161.524C221.972 161.524 222.885 161.321 223.342 161.168H223.495V164.722C222.53 164.925 221.413 165.077 220.195 165.077C216.844 165.077 214.407 163.707 214.407 160.001V142.029H210.6ZM237.798 165.636C229.98 165.636 225.107 159.442 225.107 151.827C225.107 144.212 229.98 138.019 237.798 138.019C245.667 138.019 250.439 144.212 250.439 151.827C250.439 159.442 245.667 165.636 237.798 165.636ZM237.798 162.184C243.383 162.184 246.226 157.615 246.226 151.827C246.226 146.04 243.383 141.42 237.798 141.42C232.214 141.42 229.32 146.04 229.32 151.827C229.32 157.615 232.214 162.184 237.798 162.184Z" fill="#1B1B1B"/>
<path d="M214.012 105.768C206.194 105.768 201.32 99.5746 201.32 91.9596C201.32 84.3447 206.194 78.1511 214.012 78.1511C221.88 78.1511 226.652 84.3447 226.652 91.9596C226.652 99.5746 221.88 105.768 214.012 105.768ZM214.012 102.316C219.596 102.316 222.439 97.747 222.439 91.9596C222.439 86.1722 219.596 81.5525 214.012 81.5525C208.427 81.5525 205.534 86.1722 205.534 91.9596C205.534 97.747 208.427 102.316 214.012 102.316ZM227.567 82.1617V78.8111H231.171V74.5975C231.171 70.0793 233.76 68.4548 238.126 68.4548C238.989 68.4548 239.649 68.5055 240.208 68.5563V72.0592C239.497 72.0084 239.294 72.0084 238.888 72.0084C236.248 72.0084 235.283 72.6684 235.283 74.8006V78.8111H240.157V82.1617H235.283V105.057H231.171V82.1617H227.567Z" fill="#1B1B1B"/>
</svg>
